<svg xmlns="http://www.w3.org/2000/svg" id="prefix___001-whatsapp" width="130" height="130" data-name="001-whatsapp" viewBox="0 0 130 130">
    <path id="prefix__Path_190" d="M131.75 99.659a32.19 32.19 0 0 1-31.988 32.091H35.989A32.19 32.19 0 0 1 4 99.659V35.886A32.015 32.015 0 0 1 35.989 4h63.773a31.949 31.949 0 0 1 31.988 31.886z" data-name="Path 190" transform="translate(-2.875 -2.875)" style="fill:#00c451"/>
    <path id="prefix__Path_191" d="M172.88 144.346c0 23.623-16.416 42.746-36.768 42.746a32.79 32.79 0 0 1-17.76-5.287L98 189.342l6.624-22.948a47.454 47.454 0 0 1-5.28-22.048c0-23.623 16.416-42.746 36.768-42.746s36.768 19.123 36.768 42.746m-36.768-36c-17.088 0-30.912 16.086-30.912 35.884a39.889 39.889 0 0 0 5.856 21.036l-3.84 13.386 11.9-4.387a28.12 28.12 0 0 0 16.992 5.962c17.088 0 30.912-16.086 30.912-35.884s-13.824-36-30.912-36m18.528 45.783c-.192-.45-.864-.675-1.728-1.237s-5.376-3.037-6.144-3.375-1.44-.562-2.016.562c-.576 1.012-2.3 3.375-2.88 4.162-.48.675-1.056.787-1.92.225a24.624 24.624 0 0 1-7.3-5.175 30.814 30.814 0 0 1-4.992-7.2 1.716 1.716 0 0 1 .384-2.137c.384-.45.864-1.237 1.344-1.8a4.953 4.953 0 0 0 .864-1.8 1.944 1.944 0 0 0-.1-1.8c-.192-.562-2.016-5.624-2.784-7.762s-1.536-1.687-2.016-1.687-1.152-.112-1.728-.112a3.04 3.04 0 0 0-2.4 1.35 12.418 12.418 0 0 0-3.168 8.774c0 5.175 3.264 10.124 3.648 10.8.48.675 6.24 11.586 15.36 15.861 9.12 4.162 9.12 2.812 10.848 2.587 1.632-.225 5.28-2.475 6.048-4.95.96-2.7.96-4.837.672-5.287" data-name="Path 191" transform="translate(-70.44 -79.695)" style="fill:#fff"/>
    <path id="prefix__Path_192" d="M96.937 130H33.063A33.027 33.027 0 0 1 0 97.039V33.165A33.136 33.136 0 0 1 33.063 0h63.874A33.136 33.136 0 0 1 130 33.165v63.874A33.027 33.027 0 0 1 96.937 130zM33.063 2.047A31.083 31.083 0 0 0 2.047 33.165v63.874a31.039 31.039 0 0 0 31.016 30.913h63.874a30.973 30.973 0 0 0 31.016-30.913V33.165A31.083 31.083 0 0 0 96.937 2.047z" data-name="Path 192"/>
    <path id="prefix__Path_193" d="M111.629 140.5H52.872A28.9 28.9 0 0 1 24 111.73V52.973C24 37.271 37.17 24 52.872 24h58.555a1.013 1.013 0 0 1 0 2.026H52.872a27.246 27.246 0 0 0-26.846 26.947v58.757c0 14.487 12.359 26.745 26.846 26.745h58.757a27.137 27.137 0 0 0 26.846-26.745V83.264a1.013 1.013 0 0 1 2.026 0v28.466a28.838 28.838 0 0 1-28.872 28.77z" data-name="Path 193" transform="translate(-17.251 -17.251)"/>
    <path id="prefix__Path_194" d="M385.848 35.7a1.021 1.021 0 0 1-.787-.337 32.706 32.706 0 0 0-21.935-9.112 1.125 1.125 0 1 1 0-2.25 34.4 34.4 0 0 1 23.51 9.787 1.087 1.087 0 0 1 0 1.575.876.876 0 0 1-.788.337z" data-name="Path 194" transform="translate(-273.059 -17.251)"/>
    <path id="prefix__Path_195" d="M477.125 185.7a1.063 1.063 0 0 1-1.125-1.127v-16.648a1.125 1.125 0 0 1 2.25 0v16.648a1.063 1.063 0 0 1-1.125 1.127z" data-name="Path 195" transform="translate(-354.999 -124.759)"/>
    <path id="prefix__Path_196" d="M161.234 184.069a43.462 43.462 0 0 1-20.136-4.835l-13.386 3.533a1.15 1.15 0 0 1-1.125-.279c-.225-.279-.45-.651-.225-.93l4.387-10.6a27.1 27.1 0 0 1-6.749-17.57c0-16.921 16.761-30.588 37.347-30.588s37.347 13.76 37.347 30.588c-.113 16.921-16.874 30.681-37.46 30.681zm-19.911-6.787a.961.961 0 0 1 .562.186 39.933 39.933 0 0 0 19.348 4.742c19.348 0 35.1-12.923 35.1-28.728 0-15.9-15.749-28.729-35.1-28.729s-35.1 12.923-35.1 28.729a25.5 25.5 0 0 0 6.637 16.828.772.772 0 0 1 .112.837l-3.825 9.3 11.811-3.068a1 1 0 0 1 .455-.097zm31.61-6.229c-1.575 0-4.387-.465-10.687-2.51a41.486 41.486 0 0 1-18.336-13.2c-.112-.093-.225-.186-.225-.279-1.35-1.488-4.5-5.392-4.5-9.483a9.955 9.955 0 0 1 3.825-7.717l.225-.186a5.765 5.765 0 0 1 3.6-1.395h2.137c1.125-.093 2.25.093 3.262 2.045.337.558.787 1.488 1.237 2.417.787 1.581 1.8 3.626 2.025 3.9a2 2 0 0 1 .112 2.324l-.112.279a7.73 7.73 0 0 1-1.012 1.395c-.225.186-.337.372-.562.558a11.2 11.2 0 0 1-1.125 1.023c-.45.372-.45.372-.337.651a.863.863 0 0 1-.45 1.3 1.27 1.27 0 0 1-1.575-.372 1.865 1.865 0 0 1 .675-2.882c.225-.186.562-.558.9-.837a2.641 2.641 0 0 0 .562-.558 9.786 9.786 0 0 0 .787-1.023l.112-.279c.112-.186.112-.372-.112-.651s-.9-1.674-2.025-4c-.45-.93-.9-1.859-1.237-2.417-.45-.93-.675-.93-1.012-.837h-2.362a3.325 3.325 0 0 0-2.025.744l-.225.186a8.2 8.2 0 0 0-3.15 6.415c0 3.626 3.15 7.345 4.05 8.368 0 .093.112.186.225.279a38.911 38.911 0 0 0 17.323 12.458c8.549 2.789 10.012 2.51 11.136 2.231.337-.093.675-.093 1.012-.186 1.687-.093 5.512-1.952 6.187-3.533a6.778 6.778 0 0 0 .675-3.347 3.2 3.2 0 0 0-1.012-.372l-.562-.186c-1.35-.558-6.3-2.51-7.087-2.789s-.787-.279-1.012.093c-.9 1.116-3.375 3.44-3.375 3.533a3.347 3.347 0 0 1-3.6.465 2.6 2.6 0 0 0-.675-.186 32.87 32.87 0 0 1-8.1-4.184.8.8 0 0 1-.112-1.3 1.256 1.256 0 0 1 1.575-.093 26.446 26.446 0 0 0 7.537 3.9 6.144 6.144 0 0 1 .787.279c.675.279.675.186.9 0 .787-.744 2.587-2.51 3.262-3.254 1.237-1.488 2.812-1.023 3.712-.837 1.125.372 6.637 2.51 7.312 2.882l.562.186a4.464 4.464 0 0 1 1.912 1.116c.562.744.337 2.975-.562 4.928-1.125 2.51-5.849 4.556-8.1 4.742-.225 0-.45.093-.675.093a12.537 12.537 0 0 0-1.685.103z" data-name="Path 196" transform="translate(-95.708 -88.266)"/>
    <path id="prefix__Path_197" d="M94.552 188.679a.823.823 0 0 1-.675-.337 1 1 0 0 1-.193-1.125l6.557-22.385a49.768 49.768 0 0 1-5.207-22.16c0-24.185 16.972-43.871 37.9-43.871s37.9 19.686 37.9 43.871-16.972 43.871-37.9 43.871A34.256 34.256 0 0 1 115 181.367l-20.058 7.424a.646.646 0 0 0-.39-.112zm38.284-87.742c-19.865 0-35.97 18.673-35.97 41.621a46.874 46.874 0 0 0 5.111 21.486 1.03 1.03 0 0 1 .1.9L96 185.754l18.612-6.862a.668.668 0 0 1 .771.113 32.3 32.3 0 0 0 17.358 5.175c19.865 0 35.97-18.673 35.97-41.621.095-22.948-16.011-41.622-35.875-41.622z" data-name="Path 197" transform="translate(-67.266 -77.774)"/>
</svg>
