<svg xmlns="http://www.w3.org/2000/svg" id="prefix___002-facebook" width="130" height="130" data-name="002-facebook" viewBox="0 0 130 130">
    <path id="prefix__Path_198" d="M131.75 99.762a32.1 32.1 0 0 1-31.988 31.988H35.989A32.1 32.1 0 0 1 4 99.762V35.989A32.1 32.1 0 0 1 35.989 4h63.773a32.1 32.1 0 0 1 31.988 31.989z" data-name="Path 198" transform="translate(-2.875 -2.875)" style="fill:#235b9e"/>
    <path id="prefix__Path_199" d="M191.687 172.83h16.761v-37.119h13.274l1.578-15.251h-13.727v-5.755a3.582 3.582 0 0 1 3.712-3.837h9.674V98.4h-13.724c-15.074 0-18.673 9.592-18.673 15.634v6.522H182.8v15.155h8.887v37.119z" data-name="Path 199" transform="translate(-137.851 -70.728)" style="fill:#fff"/>
    <path id="prefix__Path_200" d="M205.573 170.792h-16.761a1 1 0 0 1-1.125-.964V133.5h-7.762a1 1 0 0 1-1.125-.964v-15.32a1 1 0 0 1 1.125-.964h6.637v-5.588c0-8 5.175-16.669 19.8-16.669h13.724a1 1 0 0 1 1.125.964v12.718a1 1 0 0 1-1.125.964h-9.676c-.562 0-2.587.193-2.587 2.891v4.818h12.6a1.108 1.108 0 0 1 .787.289 1.01 1.01 0 0 1 .337.771l-1.575 15.32c0 .482-.562.867-1.125.867H206.7v11.466a1.138 1.138 0 0 1-2.25 0v-12.522a1 1 0 0 1 1.125-.964h12.261l1.35-13.393H206.7a1 1 0 0 1-1.125-.964v-5.78a4.63 4.63 0 0 1 4.837-4.818h8.549v-10.7h-12.6c-2.925 0-17.548.674-17.548 14.742v6.552a1 1 0 0 1-1.125.964h-6.638v13.393h7.762a1 1 0 0 1 1.125.964v36.325h14.511v-7.612a1.138 1.138 0 0 1 2.25 0v8.575a1.134 1.134 0 0 1-1.125.967z" data-name="Path 200" transform="translate(-134.977 -67.565)"/>
    <path id="prefix__Path_201" d="M96.937 130H33.063A33.114 33.114 0 0 1 0 96.937V33.063A33.114 33.114 0 0 1 33.063 0h63.874A33.114 33.114 0 0 1 130 33.063v63.874A33.114 33.114 0 0 1 96.937 130zM33.063 2.047A31.061 31.061 0 0 0 2.047 33.063v63.874a31.061 31.061 0 0 0 31.016 31.016h63.874a31.061 31.061 0 0 0 31.016-31.016V33.063A31.061 31.061 0 0 0 96.937 2.047z" data-name="Path 201"/>
    <path id="prefix__Path_202" d="M111.629 140.5H52.872C37.17 140.5 24 127.23 24 111.528V52.872A29.189 29.189 0 0 1 52.872 24h58.555a1.013 1.013 0 0 1 0 2.026H52.872a27.157 27.157 0 0 0-26.846 26.846v58.757c0 14.588 12.359 26.947 26.846 26.947h58.757a27.246 27.246 0 0 0 26.846-26.947V83.264a1.013 1.013 0 0 1 2.026 0v28.366a29.189 29.189 0 0 1-28.872 28.87z" data-name="Path 202" transform="translate(-17.251 -17.251)"/>
    <path id="prefix__Path_203" d="M387.86 35.586a1.021 1.021 0 0 1-.787-.337 30.133 30.133 0 0 0-21.148-9 1.125 1.125 0 1 1 0-2.25 32.354 32.354 0 0 1 22.723 9.674 1.087 1.087 0 0 1 0 1.575.876.876 0 0 1-.788.338z" data-name="Path 203" transform="translate(-275.071 -17.251)"/>
    <path id="prefix__Path_204" d="M477.125 185.7a1.063 1.063 0 0 1-1.125-1.127v-16.648a1.125 1.125 0 0 1 2.25 0v16.648a1.063 1.063 0 0 1-1.125 1.127z" data-name="Path 204" transform="translate(-354.999 -124.759)"/>
</svg>
