<svg xmlns="http://www.w3.org/2000/svg" id="prefix___003-youtube" width="130" height="130" data-name="003-youtube" viewBox="0 0 130 130">
    <path id="prefix__Path_205" d="M131.75 99.762a32.1 32.1 0 0 1-31.988 31.988H35.989A32.037 32.037 0 0 1 4 99.762V36.091A32.19 32.19 0 0 1 35.989 4h63.773a32.124 32.124 0 0 1 31.988 32.091z" data-name="Path 205" transform="translate(-2.875 -2.875)" style="fill:#ff312e"/>
    <path id="prefix__Path_206" d="M173.118 152.974s-.671-6.3-2.876-9.112a10.364 10.364 0 0 0-7.476-4.05c-10.544-.9-26.167-1.012-26.167-1.012s-15.72.112-26.167 1.012a10.111 10.111 0 0 0-7.476 3.937c-2.2 2.812-2.78 9.112-2.78 9.112s-.575 7.424-.575 14.849v6.974c0 7.424.575 14.849.575 14.849s.671 6.3 2.876 9.112c2.876 3.6 6.518 3.487 8.243 3.937 5.943.675 25.4.9 25.4.9s15.72 0 26.167-.9a9.869 9.869 0 0 0 7.476-3.825c2.2-2.812 2.78-9.112 2.78-9.112s.575-7.424.575-14.849v-6.974c0-7.424-.575-14.849-.575-14.849m-44.188 30.148v-25.648l20.129 12.827z" data-name="Path 206" transform="translate(-71.59 -106.188)" style="fill:#fff"/>
    <path id="prefix__Path_207" d="M96.937 130H33.063A33.136 33.136 0 0 1 0 96.835V33.063A33.114 33.114 0 0 1 33.063 0h63.874A33.092 33.092 0 0 1 130 32.961v63.874A33.136 33.136 0 0 1 96.937 130zM33.063 2.047A31.061 31.061 0 0 0 2.047 33.063v63.874a31.148 31.148 0 0 0 31.016 31.118h63.874a31.083 31.083 0 0 0 31.016-31.118V33.063A30.973 30.973 0 0 0 96.937 2.15H33.063z" data-name="Path 207"/>
    <path id="prefix__Path_208" d="M111.629 140.5H52.872C37.17 140.5 24 127.23 24 111.528V52.771A29.169 29.169 0 0 1 52.872 24h58.555a1.013 1.013 0 0 1 0 2.026H52.872a27.137 27.137 0 0 0-26.846 26.745v58.757c0 14.588 12.359 26.947 26.846 26.947h58.757a27.246 27.246 0 0 0 26.846-26.947V83.264a1.013 1.013 0 0 1 2.026 0v28.366a29.257 29.257 0 0 1-28.872 28.87z" data-name="Path 208" transform="translate(-17.251 -17.251)"/>
    <path id="prefix__Path_209" d="M387.86 35.186a1.021 1.021 0 0 1-.787-.337 30.133 30.133 0 0 0-21.148-9 1.125 1.125 0 1 1 0-2.25 32.515 32.515 0 0 1 22.723 9.562 1.087 1.087 0 0 1 0 1.575.753.753 0 0 1-.788.45z" data-name="Path 209" transform="translate(-275.071 -16.963)"/>
    <path id="prefix__Path_210" d="M477.125 185.7a1.063 1.063 0 0 1-1.125-1.127v-16.648a1.125 1.125 0 0 1 2.25 0v16.648a1.063 1.063 0 0 1-1.125 1.127z" data-name="Path 210" transform="translate(-354.999 -124.759)"/>
    <path id="prefix__Path_211" d="M218.725 228.954a.843.843 0 0 1-.562-.112 1.181 1.181 0 0 1-.562-1.012v-25.649a1.181 1.181 0 0 1 .562-1.012 1.022 1.022 0 0 1 1.125 0l9.112 4.95a1.158 1.158 0 0 1-1.125 2.025l-7.424-4.05v21.935l22.049-11.924a1.158 1.158 0 0 1 1.125 2.025l-23.735 12.711a1.014 1.014 0 0 1-.565.113z" data-name="Path 211" transform="translate(-163.143 -150.801)"/>
    <path id="prefix__Path_212" d="M133.323 202.019c-.77 0-19.639-.225-25.608-.9-.385-.112-.674-.112-1.059-.225-1.925-.337-5.2-.787-7.8-4.05-2.407-3.037-2.984-9.449-3.081-9.674 0-.112-.578-7.537-.578-14.961v-6.974c0-7.312.578-14.849.578-14.961 0-.337.674-6.749 3.177-9.787a10.506 10.506 0 0 1 7.7-4.275h.289c10.493-.9 26.186-1.012 26.378-1.012s15.981.112 26.378 1.012h.385a10.359 10.359 0 0 1 7.7 4.275c2.407 3.037 3.081 9.449 3.081 9.787 0 .112.674 7.649.674 14.961v6.974c0 7.424-.674 14.849-.674 14.961 0 .337-.77 6.749-3.177 9.787a10.372 10.372 0 0 1-7.605 4.162.763.763 0 0 0-.481.112c-10.3.675-26.084.788-26.277.788zm.1-64.682c-.193 0-15.788.112-26.186 1.012h-.289a9.1 9.1 0 0 0-6.546 3.6c-1.637 2.025-2.5 6.749-2.7 8.437 0 0-.578 7.424-.578 14.624v6.974c0 7.312.578 14.624.578 14.736 0 0 .578 5.962 2.5 8.437a9.306 9.306 0 0 0 6.643 3.375c.385.112.77.112 1.059.225 5.776.675 24.934.9 25.319.9s15.885 0 26.186-.9a.917.917 0 0 0 .481-.112 8.418 8.418 0 0 0 6.354-3.487c2.022-2.475 2.7-8.437 2.7-8.437s.674-7.424.674-14.624v-6.862c0-7.312-.578-14.624-.674-14.736 0 0-.578-5.962-2.6-8.437a8.486 8.486 0 0 0-6.546-3.487h-.385c-10.205-1.013-25.897-1.238-25.994-1.238z" data-name="Path 212" transform="translate(-68.427 -103.609)"/>
</svg>
