<svg xmlns="http://www.w3.org/2000/svg" id="prefix___004-twitter" width="130" height="130" data-name="004-twitter" viewBox="0 0 130 130">
    <path id="prefix__Path_213" d="M131.75 99.762a32.1 32.1 0 0 1-31.988 31.988H35.989A32.1 32.1 0 0 1 4 99.762V35.989A32.037 32.037 0 0 1 35.989 4h63.773a32.1 32.1 0 0 1 31.988 31.989z" data-name="Path 213" transform="translate(-2.875 -2.875)" style="fill:#00abe3"/>
    <path id="prefix__Path_214" d="M170.16 130.55a28.143 28.143 0 0 1-9.792 4.275 14.387 14.387 0 0 0-11.232-5.624c-8.448 0-15.36 7.987-15.36 17.773a19.291 19.291 0 0 0 .384 4.05c-12.768-.787-24.1-7.762-31.68-18.561a19.261 19.261 0 0 0-2.112 8.887 18.476 18.476 0 0 0 6.912 14.736 12.645 12.645 0 0 1-6.816-2.25v.225c0 8.549 5.184 15.749 12.192 17.323a12.361 12.361 0 0 1-4.128.675 11.986 11.986 0 0 1-2.88-.337c1.92 7.087 7.584 12.149 14.3 12.261a28.525 28.525 0 0 1-19.1 7.537c-1.248 0-2.5-.112-3.648-.225a39.237 39.237 0 0 0 23.52 7.987c28.224 0 43.68-27 43.68-50.4v-2.25a34.951 34.951 0 0 0 7.68-9.224 27.417 27.417 0 0 1-8.832 2.812 16.743 16.743 0 0 0 6.912-9.674" data-name="Path 214" transform="translate(-69.865 -99.287)" style="fill:#fff"/>
    <path id="prefix__Path_215" d="M96.937 130H33.063A33.114 33.114 0 0 1 0 96.937V33.063A33.114 33.114 0 0 1 33.063 0h63.874A33.114 33.114 0 0 1 130 33.063v63.874A33.114 33.114 0 0 1 96.937 130zM33.063 2.047A31.061 31.061 0 0 0 2.047 33.063v63.874a31.061 31.061 0 0 0 31.016 31.016h63.874a31.061 31.061 0 0 0 31.016-31.016V33.063A31.061 31.061 0 0 0 96.937 2.047z" data-name="Path 215"/>
    <path id="prefix__Path_216" d="M111.347 140.5H52.579A29.368 29.368 0 0 1 23.6 111.528V52.872A29.348 29.348 0 0 1 52.579 24h58.464a1.013 1.013 0 1 1 0 2.026H52.579a27.16 27.16 0 0 0-26.851 26.846v58.757a27.336 27.336 0 0 0 26.952 26.947h58.768a27.248 27.248 0 0 0 26.852-26.947V83.264a1.013 1.013 0 0 1 2.027 0v28.366a29.348 29.348 0 0 1-28.98 28.87z" data-name="Path 216" transform="translate(-16.963 -17.251)"/>
    <path id="prefix__Path_217" d="M388.26 35.586a1.021 1.021 0 0 1-.787-.337 30.133 30.133 0 0 0-21.148-9 1.125 1.125 0 0 1 0-2.25 32.156 32.156 0 0 1 22.723 9.674 1.087 1.087 0 0 1 0 1.575 1.215 1.215 0 0 1-.788.338z" data-name="Path 217" transform="translate(-275.359 -17.251)"/>
    <path id="prefix__Path_218" d="M477.125 185.7a1.063 1.063 0 0 1-1.125-1.127v-16.648a1.125 1.125 0 0 1 2.25 0v16.648a1.063 1.063 0 0 1-1.125 1.127z" data-name="Path 218" transform="translate(-354.999 -124.759)"/>
    <path id="prefix__Path_219" d="M371.049 150.23a1.063 1.063 0 0 1-1.125-1.125v-2.25a1.221 1.221 0 0 1 .45-1.012 35.069 35.069 0 0 0 6.412-5.849 36.609 36.609 0 0 1-6.974 1.462 1.1 1.1 0 0 1-1.237-.787 1.082 1.082 0 0 1 .45-1.35 16.387 16.387 0 0 0 7.424-9.224 1.139 1.139 0 0 1 2.137.787 18.75 18.75 0 0 1-4.612 7.537 31.964 31.964 0 0 0 5.512-1.912 1.073 1.073 0 0 1 1.35.337 1.179 1.179 0 0 1 .112 1.35 37.447 37.447 0 0 1-8.774 9.112v1.687a1.232 1.232 0 0 1-1.125 1.237z" data-name="Path 219" transform="translate(-275.092 -96.809)"/>
    <path id="prefix__Path_220" d="M121.659 184.494a61.9 61.9 0 0 1-28.235-6.664.793.793 0 0 1-.45-1.111 1.252 1.252 0 0 1 1.237-.648 41.257 41.257 0 0 0 23.4-4.442c-6.862-1.018-12.6-5-14.736-10.551a.98.98 0 0 1 .225-.925 1.022 1.022 0 0 1 1.012-.278 18.108 18.108 0 0 0 3.15.278c-6.3-2.591-10.462-7.867-10.462-13.882v-.185a.95.95 0 0 1 .562-.833 1.209 1.209 0 0 1 1.125 0 13.561 13.561 0 0 0 3.487 1.2 14.109 14.109 0 0 1-5.512-10.736 13.134 13.134 0 0 1 2.587-7.774 1.2 1.2 0 0 1 .9-.463 1.11 1.11 0 0 1 .9.37c8.662 8.607 21.261 13.975 34.872 14.808a16.11 16.11 0 0 1-.225-2.314c0-8.514 8.549-15.548 19.123-15.548a21.805 21.805 0 0 1 13.5 4.535 39.643 39.643 0 0 0 10.46-3.331 1.274 1.274 0 0 1 1.575.37.857.857 0 0 1-.45 1.3 42.82 42.82 0 0 1-11.811 3.609 1.022 1.022 0 0 1-1.013-.279 18.824 18.824 0 0 0-12.374-4.35c-9.337 0-16.873 6.108-16.873 13.7a10.143 10.143 0 0 0 .45 3.147.819.819 0 0 1-.225.833 1.11 1.11 0 0 1-.9.37c-14.174-.555-27.56-5.831-36.784-14.53a11.439 11.439 0 0 0-1.575 5.738c0 4.535 2.925 8.792 7.649 11.384a.81.81 0 0 1 .45 1.018 1.12 1.12 0 0 1-1.125.648 22.6 22.6 0 0 1-6.749-1.2c.675 5.923 6.074 10.828 13.274 12.031a.882.882 0 0 1 .112 1.758 23.949 23.949 0 0 1-6.862.463c2.7 4.813 8.549 7.959 15.074 8.052a1.066 1.066 0 0 1 1.012.648.925.925 0 0 1-.337 1.018 42.024 42.024 0 0 1-22.61 6.386 59.375 59.375 0 0 0 22.948 4.535c17.211 0 31.835-6.2 41.171-17.492a1.252 1.252 0 0 1 1.575-.278.823.823 0 0 1 .337 1.3c-9.449 11.837-24.748 18.315-42.859 18.315z" data-name="Path 220" transform="translate(-72.825 -89.703)"/>
</svg>
