<svg xmlns="http://www.w3.org/2000/svg" id="prefix___005-instagram" width="130" height="130" data-name="005-instagram" viewBox="0 0 130 130">
    <path id="prefix__Path_180" d="M131.75 99.762a32.1 32.1 0 0 1-31.988 31.988H35.989A32.1 32.1 0 0 1 4 99.762V35.989A32.1 32.1 0 0 1 35.989 4h63.773a32.1 32.1 0 0 1 31.988 31.989z" data-name="Path 180" transform="translate(-2.875 -2.875)" style="fill:#2d80a6"/>
    <path id="prefix__Path_181" d="M159.12 99.2h-45.731A14.037 14.037 0 0 0 99.2 113.389v45.827a14.037 14.037 0 0 0 14.189 14.189h45.827a14.037 14.037 0 0 0 14.189-14.189v-45.827A14.037 14.037 0 0 0 159.216 99.2m4.027 8.341h1.534V120.2h-12.56v-12.659zm-37.582 21.092a12.946 12.946 0 0 1 10.642-5.465 13.135 13.135 0 1 1-13.135 13.132 12.663 12.663 0 0 1 2.493-7.67m41.033 30.583a7.749 7.749 0 0 1-7.478 7.478h-45.827a7.749 7.749 0 0 1-7.478-7.478v-30.484h11.5a18.52 18.52 0 0 0-1.534 7.67 20.421 20.421 0 0 0 40.842 0 18.851 18.851 0 0 0-1.534-7.67h11.5v30.487z" data-name="Path 181" transform="translate(-71.303 -71.303)" style="fill:#fff"/>
    <path id="prefix__Path_182" d="M96.937 130H33.063A33.114 33.114 0 0 1 0 96.937V33.063A33.114 33.114 0 0 1 33.063 0h63.874A33.114 33.114 0 0 1 130 33.063v63.874A33.114 33.114 0 0 1 96.937 130zM33.063 2.047A31.061 31.061 0 0 0 2.047 33.063v63.874a31.061 31.061 0 0 0 31.016 31.016h63.874a31.061 31.061 0 0 0 31.016-31.016V33.063A31.061 31.061 0 0 0 96.937 2.047z" data-name="Path 182"/>
    <path id="prefix__Path_183" d="M111.629 140.5H52.872A29.257 29.257 0 0 1 24 111.629V52.872A29.189 29.189 0 0 1 52.872 24h58.555a1.013 1.013 0 0 1 0 2.026H52.872a27.157 27.157 0 0 0-26.846 26.846v58.757a27.225 27.225 0 0 0 26.846 26.846h58.757a27.225 27.225 0 0 0 26.846-26.846V83.264a1.013 1.013 0 0 1 2.026 0v28.366a29.189 29.189 0 0 1-28.872 28.87z" data-name="Path 183" transform="translate(-17.251 -17.251)"/>
    <path id="prefix__Path_184" d="M386.423 35.586a1.021 1.021 0 0 1-.787-.337 31.827 31.827 0 0 0-21.71-9 1.125 1.125 0 1 1 0-2.25 34.042 34.042 0 0 1 23.285 9.674 1.087 1.087 0 0 1 0 1.575.876.876 0 0 1-.788.338z" data-name="Path 184" transform="translate(-273.634 -17.251)"/>
    <path id="prefix__Path_185" d="M477.125 185.7a1.063 1.063 0 0 1-1.125-1.127v-16.648a1.125 1.125 0 0 1 2.25 0v16.648a1.063 1.063 0 0 1-1.125 1.127z" data-name="Path 185" transform="translate(-354.999 -124.759)"/>
    <path id="prefix__Path_186" d="M211.736 228.272a16.51 16.51 0 1 1 16.536-16.536 16.563 16.563 0 0 1-16.536 16.536zm0-30.822a14.337 14.337 0 0 0-11.586 5.962 14.138 14.138 0 0 0-2.7 8.324 14.286 14.286 0 0 0 28.572 0 13.892 13.892 0 0 0-2.7-8.324 14.337 14.337 0 0 0-11.586-5.962z" data-name="Path 186" transform="translate(-146.736 -146.736)"/>
    <path id="prefix__Path_187" d="M175.738 265.2h-44.37c-4.363 0-8.168-4.612-8.168-9.9v-35.775c0-.675.371-1.125.928-1.125h11.139a1.075 1.075 0 0 1 .835.562 1.206 1.206 0 0 1 0 1.125 24.207 24.207 0 0 0-1.392 8.437c0 12.6 8.447 22.835 18.843 22.835s18.847-10.236 18.847-22.835a23.741 23.741 0 0 0-1.4-8.437 1.567 1.567 0 0 1 0-1.125.953.953 0 0 1 .835-.562h11.139c.557 0 .928.45.928 1.125v35.884c.004 5.175-3.802 9.791-8.164 9.791zm-50.682-44.55v34.759c0 4.05 3.063 7.649 6.312 7.649h44.37c3.342 0 6.312-3.6 6.312-7.649V220.65h-8.818a29.4 29.4 0 0 1 1.021 7.874c0 13.836-9.282 25.085-20.7 25.085s-20.7-11.249-20.7-25.085a29.4 29.4 0 0 1 1.021-7.874z" data-name="Path 187" transform="translate(-88.553 -165.204)"/>
    <path id="prefix__Path_188" d="M317.925 147.1a1.153 1.153 0 0 1-1.125-1.125v-14.85a1.063 1.063 0 0 1 1.125-1.125h14.736a1.153 1.153 0 0 1 1.125 1.125v14.849a1.063 1.063 0 0 1-1.125 1.125zm1.125-14.849v12.6h12.486v-12.6z" data-name="Path 188" transform="translate(-236.811 -97.18)"/>
    <path id="prefix__Path_189" d="M156.454 171.655h-46.037A15.065 15.065 0 0 1 95.2 156.441v-46.027A15.065 15.065 0 0 1 110.417 95.2h46.037a15.168 15.168 0 0 1 15.313 15.31.963.963 0 0 1-1.926 0 13.237 13.237 0 0 0-13.387-13.384h-46.037a13.134 13.134 0 0 0-13.291 13.288v46.123a13.134 13.134 0 0 0 13.291 13.288h46.037a13.134 13.134 0 0 0 13.291-13.288v-23.11a.963.963 0 0 1 1.926 0v23.014a15.006 15.006 0 0 1-15.217 15.214z" data-name="Path 189" transform="translate(-68.427 -68.427)"/>
</svg>
