<svg xmlns="http://www.w3.org/2000/svg" xmlns:xlink="http://www.w3.org/1999/xlink" width="676.787" height="524.118" viewBox="0 0 676.787 524.118">
    <defs>
        <linearGradient id="prefix__linear-gradient" x1="-6.431" x2="-6.431" y1="1" gradientUnits="objectBoundingBox">
            <stop offset="0" stop-color="gray" stop-opacity=".251"/>
            <stop offset=".54" stop-color="gray" stop-opacity=".122"/>
            <stop offset="1" stop-color="gray" stop-opacity=".102"/>
        </linearGradient>
        <linearGradient id="prefix__linear-gradient-2" x1="14.93" x2="14.93" y1="1" y2="0" xlink:href="#prefix__linear-gradient"/>
        <style>
            .prefix__cls-1{fill:none;stroke:#535461;stroke-miterlimit:10;stroke-width:2px}.prefix__cls-2,.prefix__cls-4{fill:#1ebff0}.prefix__cls-3{opacity:.25}.prefix__cls-4,.prefix__cls-9{opacity:.1}.prefix__cls-5{fill:#464353}.prefix__cls-6{fill:#fff}.prefix__cls-8{fill:#35323e}.prefix__cls-11{fill:#efb7b9}.prefix__cls-12{fill:#67647e}.prefix__cls-14{fill:#444053}.prefix__cls-19{fill:#db8b8b}.prefix__cls-20{fill:#2e3037}
        </style>
    </defs>
    <g id="prefix__undraw_podcast_audience_ddap" transform="translate(0 .012)">
        <g id="prefix__flowers" transform="translate(12.166 -.012)">
            <path id="prefix__Path_63" d="M310.583 274.342s-37.384-47.349-34.49-94.428a91.431 91.431 0 0 0-14.522-55.974A153.365 153.365 0 0 0 244 102" class="prefix__cls-1" data-name="Path 63" transform="translate(-147.236 -64.247)"/>
            <path id="prefix__Path_64" d="M232.913 51.493c2.643 6.581-1.6 30.455-1.6 30.455s-19.588-14.3-22.231-20.877a12.85 12.85 0 0 1 23.849-9.578z" class="prefix__cls-2" data-name="Path 64" transform="translate(-134.493 -43.428)"/>
            <path id="prefix__Path_65" d="M285.875 91.781c-1.36 6.968-17.906 24.7-17.906 24.7S259.3 93.83 260.66 86.869a12.845 12.845 0 1 1 25.217 4.912z" class="prefix__cls-2" data-name="Path 65" transform="translate(-153.106 -55.175)"/>
            <path id="prefix__Path_66" d="M321.956 185.659c-4.686 5.324-27.916 12.279-27.916 12.279s3.951-23.926 8.637-29.25a12.842 12.842 0 0 1 19.279 16.971z" class="prefix__cls-2" data-name="Path 66" transform="translate(-165.022 -86.402)"/>
            <path id="prefix__Path_67" d="M335.137 266.549c-3.719 6.046-25.447 16.823-25.447 16.823s-.148-24.248 3.571-30.294a12.845 12.845 0 1 1 21.878 13.466z" class="prefix__cls-2" data-name="Path 67" transform="translate(-170.584 -115.773)"/>
            <path id="prefix__Path_68" d="M229.65 142.47c6.568 2.688 30.468-1.392 30.468-1.392s-14.18-19.685-20.729-22.379a12.845 12.845 0 1 0-9.74 23.773z" class="prefix__cls-2" data-name="Path 68" transform="translate(-139.299 -69.84)"/>
            <path id="prefix__Path_69" d="M242.568 235.279c7.09.6 28.657-10.448 28.657-10.448s-19.408-14.548-26.472-15.147a12.845 12.845 0 1 0-2.185 25.6z" class="prefix__cls-2" data-name="Path 69" transform="translate(-142.549 -102.505)"/>
            <path id="prefix__Path_70" d="M270.789 324.165c6.865 1.792 30-5.453 30-5.453s-16.668-17.616-23.533-19.4a12.839 12.839 0 1 0-6.446 24.856z" class="prefix__cls-2" data-name="Path 70" transform="translate(-153.347 -134.232)"/>
            <path id="prefix__Path_71" d="M232.913 51.493c2.643 6.581-1.6 30.455-1.6 30.455s-19.588-14.3-22.231-20.877a12.85 12.85 0 0 1 23.849-9.578z" class="prefix__cls-3" data-name="Path 71" transform="translate(-134.493 -43.428)"/>
            <path id="prefix__Path_72" d="M285.875 91.781c-1.36 6.968-17.906 24.7-17.906 24.7S259.3 93.83 260.66 86.869a12.845 12.845 0 1 1 25.217 4.912z" class="prefix__cls-3" data-name="Path 72" transform="translate(-153.106 -55.175)"/>
            <path id="prefix__Path_73" d="M321.956 185.659c-4.686 5.324-27.916 12.279-27.916 12.279s3.951-23.926 8.637-29.25a12.842 12.842 0 0 1 19.279 16.971z" class="prefix__cls-3" data-name="Path 73" transform="translate(-165.022 -86.402)"/>
            <path id="prefix__Path_74" d="M335.137 266.549c-3.719 6.046-25.447 16.823-25.447 16.823s-.148-24.248 3.571-30.294a12.845 12.845 0 1 1 21.878 13.466z" class="prefix__cls-3" data-name="Path 74" transform="translate(-170.584 -115.773)"/>
            <path id="prefix__Path_75" d="M229.65 142.47c6.568 2.688 30.468-1.392 30.468-1.392s-14.18-19.685-20.729-22.379a12.845 12.845 0 1 0-9.74 23.773z" class="prefix__cls-3" data-name="Path 75" transform="translate(-139.299 -69.84)"/>
            <path id="prefix__Path_76" d="M242.568 235.279c7.09.6 28.657-10.448 28.657-10.448s-19.408-14.548-26.472-15.147a12.845 12.845 0 1 0-2.185 25.6z" class="prefix__cls-3" data-name="Path 76" transform="translate(-142.549 -102.505)"/>
            <path id="prefix__Path_77" d="M270.789 324.165c6.865 1.792 30-5.453 30-5.453s-16.668-17.616-23.533-19.4a12.839 12.839 0 1 0-6.446 24.856z" class="prefix__cls-3" data-name="Path 77" transform="translate(-153.347 -134.232)"/>
            <path id="prefix__Path_78" d="M274.717 294.308s-53.37-28.135-69.793-72.352a91.551 91.551 0 0 0-35.96-45.287A153.275 153.275 0 0 0 144 163.72" class="prefix__cls-1" data-name="Path 78" transform="translate(-111.692 -86.185)"/>
            <path id="prefix__Path_79" d="M115.677 118.574c5.079 4.95 10.874 28.5 10.874 28.5s-23.7-5.156-28.786-10.081a12.845 12.845 0 1 1 17.913-18.416z" class="prefix__cls-2" data-name="Path 79" transform="translate(-93.875 -68.845)"/>
            <path id="prefix__Path_80" d="M180.365 133.973C181.944 140.889 174 163.8 174 163.8s-17.1-17.2-18.692-24.113a12.843 12.843 0 1 1 25.041-5.717z" class="prefix__cls-2" data-name="Path 80" transform="translate(-115.596 -72.062)"/>
            <path id="prefix__Path_81" d="M254.237 204.182c-2.127 6.768-20.549 22.56-20.549 22.56s-6.085-23.475-3.958-30.243a12.846 12.846 0 0 1 24.493 7.7z" class="prefix__cls-2" data-name="Path 81" transform="translate(-142.004 -94.793)"/>
            <path id="prefix__Path_82" d="M297.142 273.394c-.954 7.032-16.443 25.686-16.443 25.686s-9.965-22.108-9.024-29.134a12.846 12.846 0 1 1 25.46 3.448z" class="prefix__cls-2" data-name="Path 82" transform="translate(-157.05 -119.988)"/>
            <path id="prefix__Path_83" d="M149.568 203.072c7.09-.2 27.291-13.62 27.291-13.62s-20.929-12.247-28.019-12.053a12.842 12.842 0 0 0 .728 25.673z" class="prefix__cls-2" data-name="Path 83" transform="translate(-108.977 -91.046)"/>
            <path id="prefix__Path_84" d="M198.974 282.751c6.7-2.314 21.96-21.167 21.96-21.167s-23.63-5.434-30.339-3.12a12.846 12.846 0 1 0 8.379 24.287z" class="prefix__cls-2" data-name="Path 84" transform="translate(-125.175 -119.657)"/>
            <path id="prefix__Path_85" d="M260.771 352.557C267.77 351.409 286 335.4 286 335.4s-22.379-9.346-29.379-8.2a12.845 12.845 0 1 0 4.151 25.353z" class="prefix__cls-2" data-name="Path 85" transform="translate(-147.892 -144.26)"/>
        </g>
        <ellipse id="prefix__Ellipse_34" cx="338.394" cy="47.053" class="prefix__cls-4" data-name="Ellipse 34" rx="338.394" ry="47.053" transform="translate(0 430.001)"/>
        <rect id="prefix__Rectangle_111" width="366.11" height="440.879" class="prefix__cls-5" data-name="Rectangle 111" rx="19.8" transform="translate(136.002 10.393)"/>
        <path id="prefix__Rectangle_112" d="M0 0H302.943V351.93H0z" class="prefix__cls-4" data-name="Rectangle 112" transform="translate(167.585 54.867)"/>
        <circle id="prefix__Ellipse_35" cx="12.891" cy="12.891" r="12.891" class="prefix__cls-6" data-name="Ellipse 35" transform="translate(306.166 417.11)"/>
        <circle id="prefix__Ellipse_36" cx="6.123" cy="6.123" r="6.123" class="prefix__cls-6" data-name="Ellipse 36" transform="translate(312.934 30.052)"/>
        <path id="prefix__Path_86" d="M566.446 90.2a5.8 5.8 0 1 1-5.8 5.8 5.8 5.8 0 0 1 5.8-5.8m0-.645a6.446 6.446 0 1 0 6.446 6.446 6.446 6.446 0 0 0-6.446-6.446z" class="prefix__cls-6" data-name="Path 86" transform="translate(-247.389 -59.837)"/>
        <path id="prefix__Path_87" d="M553.65 336.267a12.756 12.756 0 0 0 12.7-12.73v-27.9a12.7 12.7 0 1 0-25.409 0v27.9a12.756 12.756 0 0 0 12.7 12.73zm22.45-13.974c0 12.73-10.8 21.644-22.45 21.644s-22.45-8.921-22.45-21.644H524c0 14.432 11.434 26.53 25.415 28.438v15.192h8.47v-15.2c13.98-2.121 25.415-14.006 25.415-28.431z" class="prefix__cls-2" data-name="Path 87" transform="translate(-234.593 -128.569)"/>
        <path id="prefix__Path_88" d="M477.567 513.013a.542.542 0 0 1-.348-.129l-5.891-5.427v5.55H470v-11.635h1.328v5.55l5.9-5.466a.5.5 0 0 1 .335-.116.548.548 0 0 1 .561.554v10.532a.554.554 0 0 1-.561.587z" class="prefix__cls-6" data-name="Path 88" transform="translate(-215.399 -206.2)"/>
        <path id="prefix__Path_89" d="M477.386 501.525a.226.226 0 0 1 .239.232v10.532a.232.232 0 0 1-.238.239.239.239 0 0 1-.135-.052l-5.35-4.918-.561-.516.567-.522 5.343-4.95a.226.226 0 0 1 .135-.045m-6.562 0v11.035h-.69v-11.035h.69m6.562-.645a.851.851 0 0 0-.554.2l-5.363 4.969v-4.841a.329.329 0 0 0-.329-.329h-1.321a.329.329 0 0 0-.329.329v11.634a.329.329 0 0 0 .329.329h1.321a.329.329 0 0 0 .329-.329v-4.8l5.363 4.937a.858.858 0 0 0 .554.206.877.877 0 0 0 .883-.883v-10.545a.87.87 0 0 0-.883-.877z" class="prefix__cls-6" data-name="Path 89" transform="translate(-215.218 -206.037)"/>
        <path id="prefix__Path_90" d="M657.951 513.027a.574.574 0 0 1-.387-.155.535.535 0 0 1-.174-.406v-10.532a.554.554 0 0 1 .561-.554.522.522 0 0 1 .354.129l5.924 5.427v-5.543h1.289v11.641h-1.289v-5.588l-5.9 5.466a.529.529 0 0 1-.378.115z" class="prefix__cls-6" data-name="Path 90" transform="translate(-282.005 -206.214)"/>
        <path id="prefix__Path_91" d="M657.773 501.525a.2.2 0 0 1 .135.045l5.35 4.918.561.522-.561.516-5.35 4.95a.206.206 0 0 1-.135.052.238.238 0 0 1-.238-.238v-10.533a.232.232 0 0 1 .238-.232m7.258 0v11.035h-.69v-11.035h.69m-7.258-.645a.877.877 0 0 0-.883.877v10.532a.877.877 0 0 0 .883.883.864.864 0 0 0 .561-.206L663.7 508v4.841a.329.329 0 0 0 .329.329h1.289a.329.329 0 0 0 .335-.329v-11.632a.329.329 0 0 0-.335-.329h-1.289a.329.329 0 0 0-.329.329v4.808l-5.363-4.937a.858.858 0 0 0-.564-.2z" class="prefix__cls-6" data-name="Path 91" transform="translate(-281.827 -206.037)"/>
        <path id="prefix__Path_92" d="M568.993 513.349a.993.993 0 0 1-.993-.993v-9.623a.993.993 0 0 1 .993-.993h2.623a.993.993 0 0 1 .993.993v9.623a.993.993 0 0 1-.993.993zm-7 0a.993.993 0 0 1-.993-.993v-9.623a.993.993 0 0 1 .993-.993h2.623a.993.993 0 0 1 .993.993v9.623a.993.993 0 0 1-.993.993z" class="prefix__cls-6" data-name="Path 92" transform="translate(-247.744 -206.343)"/>
        <path id="prefix__Path_93" d="M571.452 501.9a.645.645 0 0 1 .645.645v9.623a.645.645 0 0 1-.645.645h-2.623a.645.645 0 0 1-.645-.645v-9.6a.645.645 0 0 1 .645-.645h2.623m-7 0a.645.645 0 0 1 .645.645v9.623a.644.644 0 0 1-.645.645h-2.623a.645.645 0 0 1-.645-.645v-9.623a.645.645 0 0 1 .645-.645h2.623m7-.645h-2.623a1.289 1.289 0 0 0-1.289 1.289v9.623a1.289 1.289 0 0 0 1.289 1.289h2.623a1.289 1.289 0 0 0 1.289-1.289v-9.623a1.289 1.289 0 0 0-1.289-1.287zm-7 0h-2.623a1.289 1.289 0 0 0-1.289 1.289v9.623a1.289 1.289 0 0 0 1.289 1.289h2.623a1.289 1.289 0 0 0 1.289-1.289v-9.623a1.289 1.289 0 0 0-1.288-1.287z" class="prefix__cls-6" data-name="Path 93" transform="translate(-247.581 -206.179)"/>
        <path id="prefix__Rectangle_113" d="M0 0H154.694V1.721H0z" data-name="Rectangle 113" transform="translate(241.71 279.49)" style="opacity:.5;fill:#1ebff0"/>
        <path id="prefix__Path_94" d="M522.031 480.068a3.764 3.764 0 1 1 3.758-3.758 3.764 3.764 0 0 1-3.758 3.758z" class="prefix__cls-6" data-name="Path 94" transform="translate(-232.553 -195.964)"/>
        <path id="prefix__Path_95" d="M521.853 472.695a3.442 3.442 0 1 1-3.436 3.442 3.442 3.442 0 0 1 3.436-3.442m0-.645a4.08 4.08 0 1 0 2.887 1.2 4.087 4.087 0 0 0-2.887-1.2z" class="prefix__cls-6" data-name="Path 95" transform="translate(-232.375 -195.789)"/>
        <path id="prefix__Rectangle_114" d="M0 0H47.124V1.076H0z" class="prefix__cls-6" data-name="Rectangle 114" transform="translate(242.032 279.812)"/>
        <path id="prefix__Path_96" d="M497.124 477.695v.432h-46.479v-.432h46.479m.645-.645H450v1.721h47.768z" class="prefix__cls-6" data-name="Path 96" transform="translate(-208.29 -197.567)"/>
        <path id="prefix__Path_97" d="M915.564 631.8c-24.255 0-43.914 27.452-43.914 61.323s19.659 61.323 43.914 61.323 43.907-27.458 43.907-61.323-19.659-61.323-43.907-61.323zm2.269 114.216c-21.322 0-38.609-24.042-38.609-53.692s17.287-53.685 38.609-53.685 38.615 24.036 38.615 53.685-17.287 53.692-38.615 53.692z" class="prefix__cls-8" data-name="Path 97" transform="translate(-358.162 -252.571)"/>
        <path id="prefix__Path_98" d="M902.5 519l-3.029 51.487h-59.497a20.626 20.626 0 0 0-13.993 5.292 18.647 18.647 0 0 0-6 12.118v77.244h7.567l-.052-5.3h75v-7.573h-75.084l-.645-61.955a10.028 10.028 0 0 1 .239-2.32c.471-2.043 1.773-5.762 5.272-7.851a9.889 9.889 0 0 1 5.053-1.289h67.434l3.79-53.756h22.708V519z" class="prefix__cls-5" data-name="Path 98" transform="translate(-339.796 -212.477)"/>
        <path id="prefix__Path_99" d="M902.5 519l-3.029 51.487h-59.497a20.626 20.626 0 0 0-13.993 5.292 18.647 18.647 0 0 0-6 12.118v77.244h7.567l-.052-5.3h75v-7.573h-75.084l-.645-61.955a10.028 10.028 0 0 1 .239-2.32c.471-2.043 1.773-5.762 5.272-7.851a9.889 9.889 0 0 1 5.053-1.289h67.434l3.79-53.756h22.708V519z" class="prefix__cls-9" data-name="Path 99" transform="translate(-339.796 -212.477)"/>
        <path id="prefix__Path_100" d="M830.223 517.425l57.16-1.895-3.029 79.5-137.034 1.515 3.4-32.176 74.58 12.491z" class="prefix__cls-8" data-name="Path 100" transform="translate(-265.628 -183.244)"/>
        <path id="prefix__Rectangle_115" d="M0 0H75.71V7.574H0z" class="prefix__cls-5" data-name="Rectangle 115" transform="translate(540.747 439.798)"/>
        <path id="prefix__Path_101" d="M946.093 704.576V682.3h-6.053v22.276c-2.243 1.676-3.79 5.156-3.79 9.146 0 5.646 3.055 10.223 6.819 10.223s6.813-4.576 6.813-10.223c.001-4.009-1.546-7.47-3.789-9.146z" class="prefix__cls-5" data-name="Path 101" transform="translate(-381.123 -270.521)"/>
        <path id="prefix__Path_102" d="M901.734 745.2a7.129 7.129 0 0 1 9.307-.335s9.082 6.059.754 31.8c0 0-6.052 3.784-3.023-8.334s1.508-19.685-1.515-19.685-6.813 8.334-6.813 8.334l-5.3-2.275a32.2 32.2 0 0 1 6.59-9.505z" class="prefix__cls-5" data-name="Path 102" transform="translate(-366.511 -292.202)"/>
        <path id="prefix__Path_103" d="M813.644 745.2a7.09 7.09 0 0 1 9.3-.335s9.088 6.059.761 31.8c0 0-6.059 3.784-3.029-8.334s1.515-19.685-1.515-19.685-6.813 8.334-6.813 8.334l-5.3-2.275a32.206 32.206 0 0 1 6.596-9.505z" class="prefix__cls-5" data-name="Path 103" transform="translate(-335.2 -292.197)"/>
        <ellipse id="prefix__Ellipse_37" cx="17.036" cy="22.714" class="prefix__cls-8" data-name="Ellipse 37" rx="17.036" ry="22.714" transform="translate(462.007 459.483)"/>
        <ellipse id="prefix__Ellipse_38" cx="17.036" cy="22.714" class="prefix__cls-8" data-name="Ellipse 38" rx="17.036" ry="22.714" transform="translate(518.787 459.483)"/>
        <path id="prefix__Path_104" d="M747.838 666.786c5.524 3.7 13.9 1.934 13.9 1.934s12.659-5.994 16.4-5.994 12.833-3.674 12.833-3.674l-.309-2.495-.928-7.522c5.762 4.512 12.169 2.939 15.321 2.578 3.39-.348 21.477-11.106 23.2-11.808a4.642 4.642 0 0 0 1.592-1.6 40.811 40.811 0 0 0 3.075-5.575 9.449 9.449 0 0 0 1.934-1.972 18.514 18.514 0 0 1 1.109-2.959 14.472 14.472 0 0 0 5.492-1.979 4.96 4.96 0 0 0 .754-.767 4.879 4.879 0 0 0 1.025-3.113s17.648-17.8 15.334-25.209 5.7-7.587 5.7-7.587 12.3-5.285 14.013-8.463c1.057-1.934 10.281-6.233 17.223-9.249l.857-.367c2.694 5.911 16.378 1.366 19.073-1.134 2.855-2.649 11.228-3.867 11.228-3.867s.361-34.561 3.036-38.964c1.289-2.095 1.573-8.914 1.541-15.508v-.692c3.745-.728 12.653-2.424 16.758-2.836 2.623-.258 5.35-1.895 7.451-3.481l.245.309a5.155 5.155 0 0 0 2.282.374 3.539 3.539 0 0 0 2-.374c1.6-.883 7.483-2.643 9.623-3.526s-.355-7.232-1.934-8.463-2.675-2.823-1.786-3.526-2.133-2.469-3.919-2.823a58.025 58.025 0 0 1-7.129-2.823s-1.934-4.054-5.156-4.054-7.49-3.171-7.49-3.171c-.181-1.412-3.564-1.586-3.564-1.586s-12.84-9.875-14.98-8.644-8.018-1.934-8.018-1.934-7.219.812-8.914-.516a2 2 0 0 0-.432-1.192c-.38-1.192-2.25-2.83-4.054-4.2a15.728 15.728 0 0 0 .206-2.546 10.431 10.431 0 0 0-.039-1.1v-.18l.251-2.482a5.156 5.156 0 0 1 .645-2.34c.3-.464.741-.832 1.076-1.289a2.691 2.691 0 0 0 .219-.335.41.41 0 0 0 .052-.09 2.6 2.6 0 0 0 .135-.264l.039-.09a3.921 3.921 0 0 0 .232-.754v-.058c0-.019.039-.238.052-.355a.138.138 0 0 0 0-.052 7.579 7.579 0 0 0-.4-3.023c-.535-1.669-1.373-3.281-1.463-5.015a15 15 0 0 0-.09-2.578c-.425-1.934-2.411-3.158-4.319-3.958a23.854 23.854 0 0 1-6.078-3.951c-1.8-1.392-4.77-.7-7.039-.548-5.156.329-10.274 1.889-15.141 3.5a15.369 15.369 0 0 0-5.292 2.623 5.853 5.853 0 0 0-1.934 3.268 4.109 4.109 0 0 0-.058.889.309.309 0 0 0 0 .077 3.1 3.1 0 0 0 .039.342.632.632 0 0 0 0 .11 3.133 3.133 0 0 0 .1.406c.206.645.587 1.244.806 1.889a3.627 3.627 0 0 1 .123.432v.052a3.251 3.251 0 0 0 .071.425c.193 1.6-.393 3.281-.645 4.912-.039.232-.065.471-.084.709a8.472 8.472 0 0 0 .251 2.817 1.061 1.061 0 0 0 .1.335 1.307 1.307 0 0 0 .045.148.832.832 0 0 0 .11.277 1.916 1.916 0 0 0 .077.18c.032.058.071.168.11.245l.1.2.129.219c.039.071.084.135.129.206s.084.129.129.193a2.171 2.171 0 0 0 .161.2l.142.174.187.193a1.626 1.626 0 0 0 .148.148c.071.071.148.129.219.193l.155.122a2.985 2.985 0 0 0 .277.187l.129.09c.148.084.3.161.451.232 1.025.471 2.314.645 2.933 1.534a2.117 2.117 0 0 1 .3.7v.335a15.322 15.322 0 0 0 .09 1.547 6.017 6.017 0 0 0 .045.838 2.5 2.5 0 0 0 .174.606 15.984 15.984 0 0 0 5.408 9.082c.052.271.11.587.18.948a17.878 17.878 0 0 1-5.156 2.714c-4.28 1.257-10.345 7.032-10.345 7.032s-3.01 21.689-3.732 24.332-1.289 12.891-1.289 12.891a29.555 29.555 0 0 1-1.785 6.349c-.754 1.5-.645 7.9 1.5 11.789a9.676 9.676 0 0 1-1.289 2.14c-4.28 4.937-17.113 4.763-21.393 4.763-3.945 0-5.156 2.385-5.324 2.765-7.832 2.224-33.208 9.462-36.218 10.783-3.564 1.553-5.524 16.952-5.524 16.952s-7.49 25.563-7.129 28.928-2.572 12.679-2.572 12.679 0 10.545-1.212 11.26c-1.25.529-1.07 5.646-1.07 5.646s.915.264 2.346.645a40.92 40.92 0 0 1-2.888 8.766c-.554-.7-1.1-1-1.418-.174-.9 2.243-14.264 18.112-17.655 18.112-1.611 0-4.28 1.321-6.033 3.107-1.918 1.97-2.737 4.464.157 6.398zm61.31-91.837c15.154 1.412 31.377-1.076 31.377-1.076a35.787 35.787 0 0 1-2.314 6.188c-1.07 1.76-4.106 11.815-4.106 13.929s-4.808 20.278-6.239 21.161a5.273 5.273 0 0 0-1.547 2.243 21.417 21.417 0 0 0-.948 2.694 8.75 8.75 0 0 0 .123 1.289c-1.064.98-2.192 2-3.223 2.907s-6.375 3.552-8.515 5.485-12.118 4.319-12.118 4.319a61.8 61.8 0 0 0-7.135 3.693c-3.094 1.863-6.194 4.235-7 6.574.348-3.938.922-8.689 1.289-11.705h.567c5-.309 4.248-5.079 3.99-6.259-.039-.168-.064-.264-.064-.264 3.564-3.867 11.6-32.8 10.513-35.966s.9-5.994 1.289-5.994 1-3.532.11-5.466 3.952-3.752 3.952-3.752zm122.544-77.785l-.941.232v-.2s.354 0 .954-.032zm-51.8-26.6c-.148.174-.29.348-.445.509l-.18.193v-.98zm-17.861 34.207l.064.993s-.1.6-.277 1.637zm81.93-9.855l-3.113.535c.445-.168.877-.348 1.289-.548a3.113 3.113 0 0 1 .993-.271 5.687 5.687 0 0 1 1.16.251 1.934 1.934 0 0 0-.316.032z" data-name="Path 104" transform="translate(-313.482 -179.786)"/>
        <path id="prefix__Path_105" d="M879.149 726.9s-3.584 7.412-3.41 7.934-7.7 6.826-7.7 6.826l-8.573-6.123.87-4.2s9.63-8.669 10.313-9.668 8.5 5.231 8.5 5.231z" class="prefix__cls-11" data-name="Path 105" transform="translate(-353.833 -284.476)"/>
        <path id="prefix__Path_106" d="M813.441 755.832c5.949 5.8 12.949 4.022 16.275 3.674s21.084-11.028 22.784-11.724a4.55 4.55 0 0 0 1.56-1.592 41.446 41.446 0 0 0 3-5.55c-.116 0-5.936 1.689-7.406 0 0 0-2.449-3-2.978-3s-.039-5.266-.039-5.266-6.259 3.519-8.379 5.44-11.9 4.286-11.9 4.286a59.669 59.669 0 0 0-7.039 3.635c-4.608 2.82-9.262 6.81-5.878 10.097z" class="prefix__cls-12" data-name="Path 106" transform="translate(-337.06 -288.318)"/>
        <path id="prefix__Path_107" d="M813.441 763.2c5.949 5.8 12.949 4.022 16.275 3.674s21.084-11.032 22.784-11.728a4.551 4.551 0 0 0 1.56-1.592c-2.069-1.231-15.6 7.367-19.382 8.94s-13.362.7-18.789-1.573c-2.707-1.134.039-4.628 3.461-7.831-4.639 2.83-9.293 6.82-5.909 10.11z" class="prefix__cls-9" data-name="Path 107" transform="translate(-337.06 -295.683)"/>
        <path id="prefix__Path_108" d="M805.52 739.143s-2.495 18.724-1.863 21.174-15.637-8.379-15.637-8.379 5.7-11.731 4.022-14.425 13.478 1.63 13.478 1.63z" class="prefix__cls-11" data-name="Path 108" transform="translate(-328.436 -289.831)"/>
        <path id="prefix__Path_109" d="M791 691.674s10.145 2.971 15.747 2.623c4.905-.309 4.17-5.04 3.912-6.214-.039-.168-.064-.264-.064-.264 3.5-3.867 11.376-32.544 10.313-35.7s.876-5.949 1.289-5.949.986-3.5.11-5.421 3.867-3.674 3.867-3.674c14.876 1.4 30.8-1.07 30.8-1.07a36.078 36.078 0 0 1-2.275 6.143c-1.051 1.753-4.022 11.725-4.022 13.826s-4.725 20.117-6.123 20.993a5.255 5.255 0 0 0-1.528 2.23 20.933 20.933 0 0 0-.922 2.669c.522 11.724 13.819 7.174 15.747 5.6a5.146 5.146 0 0 0 .741-.761 4.859 4.859 0 0 0 1.006-3.087s17.326-17.674 15.05-25.022 5.6-7.528 5.6-7.528 12.073-5.247 13.749-8.379c1.038-1.934 10.094-6.188 16.907-9.179 4.273-1.869 7.664-3.223 7.664-3.223l-2.842-10.216-2.256-8.018-4.215-1.586-13.458-5.066-24.171-3.326-2.217.29-23.481 3.036s-34.3 9.8-37.8 11.344-5.395 16.862-5.395 16.862-7.354 25.37-7 28.709-2.449 12.582-2.449 12.582 0 10.468-1.193 11.183h-.032c-1.231.514-1.059 5.593-1.059 5.593z" data-name="Path 109" transform="translate(-329.491 -242.007)" style="fill:#575988"/>
        <path id="prefix__Path_110" d="M845.57 648.75c14.877 1.4 30.8-1.07 30.8-1.07 1.051-3.307 15.759-12.408 15.759-12.408-12.069-2.972-46.559 13.478-46.559 13.478z" class="prefix__cls-9" data-name="Path 110" transform="translate(-348.892 -253.678)"/>
        <path id="prefix__Path_111" d="M870.28 724.4c.522 11.725 13.819 7.174 15.747 5.6a5.159 5.159 0 0 0 .741-.76c-4.647 1.708-12.891 3.029-15.566-7.509a20.919 20.919 0 0 0-.922 2.669z" class="prefix__cls-14" data-name="Path 111" transform="translate(-357.675 -284.536)"/>
        <path id="prefix__Path_112" d="M791 737.981s10.145 2.971 15.747 2.623c4.905-.309 4.17-5.04 3.912-6.214-5.156-.161-13.987-.645-18.576-2.03h-.032c-1.223.54-1.051 5.621-1.051 5.621z" class="prefix__cls-14" data-name="Path 112" transform="translate(-329.491 -288.314)"/>
        <path id="prefix__Path_113" d="M870.28 724.4c.522 11.725 13.819 7.174 15.747 5.6a5.159 5.159 0 0 0 .741-.76c-4.647 1.708-12.891 3.029-15.566-7.509a20.919 20.919 0 0 0-.922 2.669z" class="prefix__cls-9" data-name="Path 113" transform="translate(-357.675 -284.536)"/>
        <path id="prefix__Path_114" d="M791 737.981s10.145 2.971 15.747 2.623c4.905-.309 4.17-5.04 3.912-6.214-5.156-.161-13.987-.645-18.576-2.03h-.032c-1.223.54-1.051 5.621-1.051 5.621z" class="prefix__cls-9" data-name="Path 114" transform="translate(-329.491 -288.314)"/>
        <path id="prefix__Path_115" d="M751.162 782.42c5.421 3.674 13.645 1.934 13.645 1.934s12.427-5.949 16.114-5.949 12.595-3.674 12.595-3.674l-.3-2.482-1.45-11.866s-13.626-.354-14.18-1.579c0 0-2.449-6.027-3.326-3.8s-14 17.97-17.319 17.97c-1.586 0-4.209 1.289-5.93 3.087-1.905 1.97-2.691 4.439.151 6.359z" class="prefix__cls-12" data-name="Path 115" transform="translate(-314.673 -296.188)"/>
        <path id="prefix__Path_116" d="M825.21 637.37s11.376 7.174 8.244 8.785-8.244-8.785-8.244-8.785z" class="prefix__cls-9" data-name="Path 116" transform="translate(-341.655 -254.551)"/>
        <path id="prefix__Path_117" d="M817.88 658.82s9.8 9.3 6.123 9.552-6.123-9.552-6.123-9.552z" class="prefix__cls-9" data-name="Path 117" transform="translate(-339.05 -262.175)"/>
        <path id="prefix__Path_118" d="M801.59 704.7s4.976 9.353 3.1 10.958-3.1-10.958-3.1-10.958z" class="prefix__cls-9" data-name="Path 118" transform="translate(-333.26 -278.483)"/>
        <path id="prefix__Path_119" d="M886.5 715.977c-1.747 1.747 16.623-5.8 12.427-6.123s-12.427 6.123-12.427 6.123z" class="prefix__cls-9" data-name="Path 119" transform="translate(-363.397 -280.31)"/>
        <path id="prefix__Path_120" d="M943.57 502.656l.587-.09c2.179-.335 10.062-1.573 17.139-3.107 1.727-.374 3.4-.767 4.931-1.167 5.421-1.424 9.024-2.959 6.742-4.215a12.424 12.424 0 0 1-5.543-7.3c-.077-.251-.155-.5-.226-.748a18.894 18.894 0 0 1-.7-4.029s-19.775-7-15.927 0c1.888 3.435.645 6.239-1.167 8.2a15.285 15.285 0 0 1-4.254 3.178z" class="prefix__cls-11" data-name="Path 120" transform="translate(-383.725 -198.222)"/>
        <path id="prefix__Path_121" d="M952.607 507.34s-7.09 5.073-14.3.877-16.675 37.094-16.675 37.094l-9.8 24.145s-6.349 5.253 1.547 7.528 25.428-2.275 29.875 4.37 12.898 7.736 13.746 7.736 4.2-25.022 4.2-25.022l.864-36.224z" class="prefix__cls-9" data-name="Path 121" transform="translate(-371.589 -208.333)"/>
        <path id="prefix__Path_122" d="M913.936 574.808c7.9 2.275 25.422-2.275 29.869 4.377a17.133 17.133 0 0 0 7.528 6.059 19.64 19.64 0 0 0 6.207 1.637c.116 0 .284-.458.471-1.25 1.237-5.066 3.725-23.771 3.725-23.771l.864-36.218-8.315-18-1.109-2.469a15.142 15.142 0 0 1-3.6 1.753 12.679 12.679 0 0 1-10.693-.877c-2.121-1.238-4.428 1.45-6.639 5.859-5.318 10.616-10.036 31.235-10.036 31.235l-9.8 24.145q-.338.306-.645.645c-1.436 1.455-4.047 5.09 2.173 6.875z" data-name="Path 122" transform="translate(-371.784 -207.562)" style="fill:#f3f5f9"/>
        <path id="prefix__Path_123" d="M973.054 570.627a45.752 45.752 0 0 0-.232 9.217 109.337 109.337 0 0 0 1.644 13.014 4.929 4.929 0 0 0 .213.793c4.274-1.869 7.664-3.223 7.664-3.223l-2.843-10.2c1.238-5.066 3.726-23.771 3.726-23.771l.864-36.218-8.315-18c5.421-1.424 9.024-2.959 6.742-4.215-3.365-1.824-4.989-5.292-5.769-8.044a29.31 29.31 0 0 1-4.969 5.35l-.11.09-.645 6.11-.193 1.876-.4 3.867s1.934 46.022 3.326 48.645.7 7.7-.528 13.645c-.06.355-.117.703-.175 1.064z" class="prefix__cls-9" data-name="Path 123" transform="translate(-393.272 -202.163)"/>
        <path id="prefix__Path_124" d="M974.33 562.8c-1.225 5.949-.174 15.747 1.225 23.269s16.269 2.63 19.073 0 11.022-3.867 11.022-3.867.348-34.3 2.978-38.674c1.244-2.075 1.547-8.85 1.515-15.392 0-5.872-.316-11.557-.425-13.491a4.218 4.218 0 0 0-.045-.69s11.377-19.247 11.2-20.626-3.5-1.579-3.5-1.579-12.6-9.8-14.7-8.573-7.876-1.934-7.876-1.934-7.316.831-8.83-.58a.773.773 0 0 1-.271-.645c.174-2.237-7.458-7.019-7.69-7.167 6.446 5.8-3.97 14.7-5.156 15.676l-.11.09-1.22 11.883s1.934 46.015 3.326 48.638.709 7.711-.516 13.662z" class="prefix__cls-2" data-name="Path 124" transform="translate(-393.66 -196.074)"/>
        <circle id="prefix__Ellipse_39" cx=".877" cy=".877" r=".877" class="prefix__cls-14" data-name="Ellipse 39" transform="translate(580.471 315.862)"/>
        <path id="prefix__Path_125" d="M974.15 489.636l5.311 5.157 7.793-13a.761.761 0 0 1-.264-.645c.168-2.237-7.457-7.026-7.7-7.168 6.436 5.769-3.947 14.683-5.14 15.656z" class="prefix__cls-9" data-name="Path 125" transform="translate(-394.594 -196.475)"/>
        <circle id="prefix__Ellipse_40" cx=".877" cy=".877" r=".877" class="prefix__cls-9" data-name="Ellipse 40" transform="translate(582.218 343.855)"/>
        <circle id="prefix__Ellipse_41" cx=".877" cy=".877" r=".877" class="prefix__cls-14" data-name="Ellipse 41" transform="translate(582.218 343.507)"/>
        <path id="prefix__Path_126" d="M973.6 488.549l5.318 5.156 7.793-13.014a.773.773 0 0 1-.271-.645c.174-2.237-7.458-7.019-7.69-7.167 6.426 5.776-3.97 14.691-5.15 15.67z" class="prefix__cls-2" data-name="Path 126" transform="translate(-394.399 -196.085)"/>
        <rect id="prefix__Rectangle_116" width="12.176" height="25.731" class="prefix__cls-5" data-name="Rectangle 116" rx="1.7" transform="rotate(-178.69 294.93 167.781)"/>
        <circle id="prefix__Ellipse_42" cx="1.914" cy="1.914" r="1.914" class="prefix__cls-6" data-name="Ellipse 42" transform="translate(578.537 322.056)"/>
        <path id="prefix__Path_127" d="M873.26 567.585c4.377 1.934 33.072-3.152 37.275-4.377s10.313-10.674 7.348-17.5 1.051-13.471 1.051-13.471 6.3-13.471 7.7-16.114 4.319-10.268 4.725-11.544a1.024 1.024 0 0 0-.251-.806c-1.135-1.727-5.524-4.8-5.524-4.8-1.238.445-1.386-3.087-1.341-5.691 0-1.457.116-2.617.116-2.617s-.58.593-1.528 1.4c-.348.29-.741.612-1.179.941a18.093 18.093 0 0 1-5.517 3.017c-4.2 1.238-10.145 6.974-10.145 6.974l1.747 26.878s-4.022 25.267-8.225 30.165-16.8 4.725-20.993 4.725-5.259 2.82-5.259 2.82z" class="prefix__cls-9" data-name="Path 127" transform="translate(-358.734 -202.408)"/>
        <path id="prefix__Path_128" d="M872.72 565.915c4.377 1.934 33.072-3.152 37.268-4.377s10.313-10.674 7.348-17.5 1.051-13.471 1.051-13.471 6.3-13.471 7.7-16.114 4.319-10.261 4.725-11.544a1.077 1.077 0 0 0-.251-.806c-1.134-1.727-5.524-4.8-5.524-4.8-1.238.451-1.392-3.087-1.341-5.691 0-1.457.116-2.617.116-2.617s-.58.593-1.528 1.4c-.348.29-.748.612-1.18.941a18.093 18.093 0 0 1-5.517 3.017c-4.2 1.244-10.152 6.974-10.152 6.974l1.753 26.878s-4.028 25.267-8.225 30.165-16.8 4.75-21 4.75-5.243 2.795-5.243 2.795z" class="prefix__cls-2" data-name="Path 128" transform="translate(-358.542 -201.814)"/>
        <path id="prefix__Path_129" d="M946.56 490.11s.161.922.438 2.34c.941 4.8 3.223 15.3 4.808 14.889 1.167-.29 3.126-2.346 4.654-4.125-1.141-1.734-5.524-4.8-5.524-4.8-1.238.445-1.392-3.094-1.341-5.691l-1.418-1.225z" class="prefix__cls-9" data-name="Path 129" transform="translate(-384.788 -202.209)"/>
        <path id="prefix__Path_130" d="M947.1 489s.168.922.445 2.34c.941 4.808 3.184 15.3 4.808 14.9 1.16-.29 3.12-2.353 4.647-4.132-1.135-1.727-5.524-4.8-5.524-4.8-1.238.451-1.392-3.087-1.341-5.691l-1.412-1.218z" class="prefix__cls-2" data-name="Path 130" transform="translate(-384.98 -201.814)"/>
        <path id="prefix__Path_131" d="M925.493 563.169s8.747-1.747 11.2-5.595 19.118-7.174 17.081-3.152-17.081 17.19-17.081 17.19l-6.51 9.314-8.708-2.211-3.661-7.129z" class="prefix__cls-11" data-name="Path 131" transform="translate(-374.569 -224.418)"/>
        <path id="prefix__Path_132" d="M956.409 584.45s-8.47 3.152-9.746 7.348 9.746-7.348 9.746-7.348z" class="prefix__cls-9" data-name="Path 132" transform="translate(-384.788 -235.741)"/>
        <path id="prefix__Path_133" d="M964.475 592s.767 4.37-9.855 4.022z" class="prefix__cls-9" data-name="Path 133" transform="translate(-387.653 -238.425)"/>
        <path id="prefix__Path_134" d="M1034.176 504.978l3.867-.348s4.2 3.146 7.348 3.146 5.079 4.029 5.079 4.029a56.165 56.165 0 0 0 7 2.8c1.753.348 4.725 2.1 3.867 2.8s.174 2.275 1.747 3.5 4.029 7.529 1.934 8.379-7.876 2.623-9.449 3.5a4.334 4.334 0 0 1-3.5 0s-9.269-12.073-13.993-9.8-11.2 2.275-11.2 2.275l-5.073-10.674z" class="prefix__cls-9" data-name="Path 134" transform="translate(-411.531 -207.37)"/>
        <path id="prefix__Path_135" d="M914.847 563.8a4.66 4.66 0 0 0 3.261 2.269 24.681 24.681 0 0 0 10.2-.941s-17.629-5.6-.645-19.214h-4.551l-1.515-.574.7-3.629.993-32.686-3.674-.877s-2.952 21.528-3.661 24.152-1.238 12.769-1.238 12.769a29.5 29.5 0 0 1-1.747 6.3c-.817 1.584-.611 8.7 1.877 12.431z" class="prefix__cls-2" data-name="Path 135" transform="translate(-372.695 -208.621)"/>
        <path id="prefix__Path_136" d="M917.2 584.31a4.685 4.685 0 0 0 3.261 2.269 24.679 24.679 0 0 0 10.191-.941s-17.629-5.6-.645-19.214h-4.557l-1.515-.574c-2.494 4.409-6.413 12.266-6.735 18.46z" class="prefix__cls-9" data-name="Path 136" transform="translate(-374.352 -229.13)"/>
        <path id="prefix__Path_137" d="M916.12 584.31a4.661 4.661 0 0 0 3.262 2.269 24.678 24.678 0 0 0 10.2-.941s-17.629-5.6-.645-19.214h-4.551l-1.515-.574c-2.51 4.409-6.435 12.266-6.751 18.46z" data-name="Path 137" transform="translate(-373.968 -229.13)" style="fill:none"/>
        <path id="prefix__Path_138" d="M916.12 584.31a4.661 4.661 0 0 0 3.262 2.269 24.678 24.678 0 0 0 10.2-.941s-17.629-5.6-.645-19.214h-4.551l-1.515-.574c-2.51 4.409-6.435 12.266-6.751 18.46z" class="prefix__cls-2" data-name="Path 138" transform="translate(-373.968 -229.13)"/>
        <path id="prefix__Path_139" d="M952.62 490.2a15.921 15.921 0 0 0 18.048-3.423c-.078-.251-.155-.5-.226-.748a18.893 18.893 0 0 1-.7-4.029s-19.775-7-15.927 0c1.86 3.44.591 6.244-1.195 8.2z" class="prefix__cls-9" data-name="Path 139" transform="translate(-386.942 -198.222)"/>
        <path id="prefix__Path_140" d="M938.14 464.033v.155a14.951 14.951 0 0 0 .09 1.534 14.114 14.114 0 0 0 .219 1.431 15.927 15.927 0 0 0 30.681 2.056c.1-.3.2-.645.284-.935a15.852 15.852 0 0 0 .574-4.241 10.309 10.309 0 0 0-.039-1.1 15.921 15.921 0 0 0-31.809 1.1z" class="prefix__cls-11" data-name="Path 140" transform="translate(-381.795 -187.25)"/>
        <path id="prefix__Path_141" d="M938.126 464.188a6.686 6.686 0 0 1 .09 1.534 5.934 5.934 0 0 0 .045.831 2.454 2.454 0 0 0 .174.6c.645 1.515 2.739 2.488 4.125 1.515a4.473 4.473 0 0 0 1.244-1.624c1.47-2.733 3.519-5.878 6.736-5.936a16.3 16.3 0 0 1 3.99.9c1.328.342 2.9.38 3.867-.529.761-.69 1.121-1.876 2.14-2.121s1.934.69 2.43 1.611.838 1.992 1.785 2.462c.419.213.915.271 1.328.5 1.934 1.044 1.031 4.7 3.01 5.285a.884.884 0 0 0 .187.045l.1-.98c.181-1.773.355-3.552.535-5.337a15.921 15.921 0 0 0-31.809 1.1z" class="prefix__cls-9" data-name="Path 141" transform="translate(-381.781 -187.25)"/>
        <path id="prefix__Path_142" d="M962.757 433.375c1.869.793 3.816 2.011 4.235 3.919a15.472 15.472 0 0 1 .09 2.578c.09 1.727.909 3.326 1.437 4.976s.709 3.584-.342 4.982c-.329.445-.76.806-1.057 1.289a5.077 5.077 0 0 0-.612 2.32l-.864 8.611c-2.224-.413-1.231-4.26-3.223-5.33-.412-.226-.9-.29-1.328-.5-.947-.471-1.289-1.553-1.785-2.469s-1.392-1.856-2.43-1.6-1.379 1.431-2.14 2.121a4.226 4.226 0 0 1-3.867.522 14.852 14.852 0 0 0-3.99-.89c-3.223.052-5.266 3.223-6.736 5.93a4.441 4.441 0 0 1-1.244 1.631c-1.56 1.1-4.035-.284-4.3-2.121-.148-1.025.167-2.172-.425-3.042s-1.869-1.057-2.875-1.521c-2.578-1.173-3.352-4.37-2.926-7.045.309-1.934 1.076-3.919.445-5.8-.213-.645-.587-1.225-.793-1.869a5.048 5.048 0 0 1 1.8-5.066 14.781 14.781 0 0 1 5.2-2.611c4.77-1.6 9.784-3.139 14.864-3.474 2.224-.142 5.156-.838 6.9.548a24.831 24.831 0 0 0 5.966 3.911z" class="prefix__cls-5" data-name="Path 142" transform="translate(-378.141 -180.351)"/>
        <circle id="prefix__Ellipse_43" cx=".877" cy=".877" r=".877" class="prefix__cls-9" data-name="Ellipse 43" transform="translate(579.594 302.036)"/>
        <circle id="prefix__Ellipse_44" cx=".877" cy=".877" r=".877" class="prefix__cls-14" data-name="Ellipse 44" transform="translate(579.594 301.688)"/>
        <circle id="prefix__Ellipse_45" cx=".877" cy=".877" r=".877" class="prefix__cls-9" data-name="Ellipse 45" transform="translate(585.196 356.979)"/>
        <circle id="prefix__Ellipse_46" cx=".877" cy=".877" r=".877" class="prefix__cls-14" data-name="Ellipse 46" transform="translate(585.196 356.631)"/>
        <circle id="prefix__Ellipse_47" cx=".877" cy=".877" r=".877" class="prefix__cls-9" data-name="Ellipse 47" transform="translate(582.218 371.501)"/>
        <circle id="prefix__Ellipse_48" cx=".877" cy=".877" r=".877" class="prefix__cls-14" data-name="Ellipse 48" transform="translate(582.218 371.153)"/>
        <path id="prefix__Path_143" d="M932.526 534.84s-1.934 13.072 0 15.347 0-15.347 0-15.347z" class="prefix__cls-9" data-name="Path 143" transform="translate(-379.494 -218.108)"/>
        <path id="prefix__Path_144" d="M1018.971 572.49s3.674 7.915 0 15.508-5.949 10.674-4.724 15.521 4.724-31.029 4.724-31.029z" class="prefix__cls-9" data-name="Path 144" transform="translate(-408.728 -231.49)"/>
        <path id="prefix__Path_145" d="M751.163 792.2c5.421 3.674 13.645 1.934 13.645 1.934s12.427-5.949 16.114-5.949 12.595-3.674 12.595-3.674l-.3-2.482c-3.629.7-11.873 2.365-12.827 3.178-1.225 1.051-16.269 6.13-16.269 6.13s-10.249-1.289-13.1-5.492c-1.914 1.967-2.701 4.435.142 6.355z" class="prefix__cls-9" data-name="Path 145" transform="translate(-314.674 -305.969)"/>
        <g id="prefix__Group_59" data-name="Group 59" transform="translate(549.739 257.536)" style="opacity:.1">
            <path id="prefix__Path_146" d="M988.739 443.567v.077a.328.328 0 0 1 0-.077z" data-name="Path 146" transform="translate(-949.518 -443)"/>
            <path id="prefix__Path_147" d="M931.556 463.25c1.005.464 2.269.645 2.875 1.521s.277 2.017.426 3.042c.264 1.837 2.739 3.223 4.3 2.121a4.511 4.511 0 0 0 1.243-1.634c1.47-2.733 3.519-5.878 6.736-5.93a16.59 16.59 0 0 1 3.99.89c1.328.335 2.9.38 3.867-.522.761-.69 1.121-1.882 2.14-2.121s1.934.69 2.43 1.6.838 1.992 1.786 2.469c.425.206.915.271 1.328.5 1.966 1.07.973 4.918 3.223 5.331q.425-4.3.864-8.611a5.079 5.079 0 0 1 .612-2.32c.3-.458.728-.825 1.057-1.289a3.83 3.83 0 0 0 .715-1.85 4.441 4.441 0 0 1-.715 3.223c-.329.445-.761.806-1.057 1.289a5.078 5.078 0 0 0-.612 2.32q-.438 4.306-.864 8.611c-2.224-.413-1.231-4.26-3.223-5.331-.412-.226-.9-.29-1.328-.5-.948-.471-1.289-1.553-1.786-2.469s-1.392-1.856-2.43-1.6-1.379 1.431-2.14 2.121a4.226 4.226 0 0 1-3.867.522 14.847 14.847 0 0 0-3.99-.89c-3.223.052-5.266 3.223-6.736 5.93a4.441 4.441 0 0 1-1.244 1.631c-1.56 1.1-4.035-.284-4.3-2.121-.148-1.025.168-2.172-.426-3.042s-1.869-1.057-2.875-1.521c-2.34-1.076-3.223-3.835-3-6.349a5.756 5.756 0 0 0 3.001 4.979z" data-name="Path 147" transform="translate(-928.115 -447.781)"/>
            <path id="prefix__Path_148" d="M928.058 443.945c.2.645.58 1.225.793 1.869a5.343 5.343 0 0 1 .2 2.3 4.435 4.435 0 0 0-.2-.9c-.213-.645-.593-1.225-.793-1.869a3.869 3.869 0 0 1-.1-1.824 1.466 1.466 0 0 0 .1.424z" data-name="Path 148" transform="translate(-927.891 -443.185)"/>
        </g>
        <path id="prefix__Path_149" d="M995.973 555.23c4.022-.883 13.471-3.668 13.471-3.668l1.7-.342c0-5.872-.316-11.557-.425-13.491h-.045s-8.044 2.63-9.971 4.029-7.876 1.051-7.876 1.051a26.963 26.963 0 0 0-16.977 9.091c-7.703 8.577 16.101 4.213 20.123 3.33z" class="prefix__cls-9" data-name="Path 149" transform="translate(-394.657 -219.135)"/>
        <path id="prefix__Path_150" d="M1035.319 537.968a2.34 2.34 0 0 1 .522 3.925c-2.127 1.766-5.24 3.867-8.212 4.177-4.957.5-16.887 2.888-18.048 3.133l-.187.045c-.986.29-9.591 2.81-13.381 3.635-4.022.883-27.819 5.26-20.123-3.313a27.26 27.26 0 0 1 16.8-9.088 2.467 2.467 0 0 1 .309 0c.9.045 5.982.219 7.735-1.057a16.33 16.33 0 0 1 2.894-1.437 55.523 55.523 0 0 1 11.834-3.416l8.225-1.431a2.4 2.4 0 0 1 1.392.174z" class="prefix__cls-11" data-name="Path 150" transform="translate(-394.672 -217.491)"/>
        <path id="prefix__Path_151" d="M1035.3 504.978l3.867-.348s4.2 3.146 7.348 3.146 5.073 4.029 5.073 4.029a56.59 56.59 0 0 0 7 2.8c1.747.348 4.724 2.1 3.867 2.8s.18 2.275 1.753 3.5 4.022 7.529 1.934 8.379-7.87 2.623-9.443 3.5a4.334 4.334 0 0 1-3.5 0s-9.275-12.073-14-9.8-11.2 2.275-11.2 2.275l-5.073-10.674z" class="prefix__cls-2" data-name="Path 151" transform="translate(-411.929 -207.37)"/>
        <path id="prefix__Path_152" d="M988.971 604.78v45.429H916.29v7.567h71.92v32.557h7.574V604.78z" class="prefix__cls-5" data-name="Path 152" transform="translate(-374.028 -242.967)"/>
        <path id="prefix__Path_153" d="M1019.356 519h-28.767l-3.029 51.487h-59.506a20.626 20.626 0 0 0-13.987 5.292 18.647 18.647 0 0 0-6.007 12.121v77.244h7.573l-.748-74.827a10.022 10.022 0 0 1 .225-2.346 12.208 12.208 0 0 1 5.272-7.851 9.849 9.849 0 0 1 5.047-1.289h67.414l3.784-53.756h22.714z" class="prefix__cls-5" data-name="Path 153" transform="translate(-371.103 -212.477)"/>
        <path id="prefix__Path_154" d="M1003.657 631.8c-24.248 0-43.907 27.452-43.907 61.323s19.659 61.323 43.907 61.323 43.914-27.458 43.914-61.323-19.659-61.323-43.914-61.323zm2.275 114.216c-21.328 0-38.615-24.042-38.615-53.692s17.287-53.685 38.615-53.685 38.609 24.036 38.609 53.685-17.286 53.692-38.608 53.692z" class="prefix__cls-8" data-name="Path 154" transform="translate(-389.476 -252.571)"/>
        <ellipse id="prefix__Ellipse_49" cx="6.813" cy="10.223" class="prefix__cls-8" data-name="Ellipse 49" rx="6.813" ry="10.223" transform="translate(611.913 432.225)"/>
        <ellipse id="prefix__Ellipse_50" cx="1.515" cy="3.029" class="prefix__cls-5" data-name="Ellipse 50" rx="1.515" ry="3.029" transform="translate(618.726 439.798)"/>
        <path id="prefix__Path_155" d="M844.863 706.556v8.328c-2.378-1.482-4.989-1.1-7.29-.09a13.768 13.768 0 0 0-7.561 8.876c-1.837 6.33-5.395 18.821-8.618 30.584-4.512 16.655-12.891 12.891-12.891 12.891l-57.92 4.164L726 758.765V751.2h62.084s14.38 5.3 20.42 7.561 3.784-2.275 11.783-30.836 24.576-21.369 24.576-21.369z" class="prefix__cls-5" data-name="Path 155" transform="translate(-306.392 -278.856)"/>
        <path id="prefix__Path_156" d="M733.523 752.492l-57.92 4.164L651 744.164l60.569-.754z" class="prefix__cls-9" data-name="Path 156" transform="translate(-231.392 -264.242)"/>
        <path id="prefix__Path_157" d="M353.649 470.906a30.94 30.94 0 0 1-5.279-6.446c-3.068-4.8-8.257-7.38-11.783-8.708v-1.566l.219-.039-.1-1.457h.1l-.251-3.867-1.255-19.233s-4.544-12.788 3.532-24.6.5-23.12-7.09-27.548c0 0-3.532-18.692-.5-23.114a130.4 130.4 0 0 0-12.685-6.446c-.071-.226-.129-.464-.187-.7-.084-1.747-.193-3.487-.29-5.227a18.994 18.994 0 0 1 .5-2.681c.1-.361.206-.735.322-1.115a19.2 19.2 0 0 0 12.343-17.8 18.691 18.691 0 0 0-1.2-6.6 8.3 8.3 0 0 0 .877-2.095 8.522 8.522 0 0 0-1.2-6.136c-2.011-4.4-7.051-8.489-10.713-9.971-5.247-2.133-13.143-1.631-18.608-.973-3.068.367-6.568 1.392-7.677 4.2a29.3 29.3 0 0 0-.7 3.223c-1.147 4.293-6.1 6.3-9.166 9.578-2.707 2.9-3.867 6.826-4.77 10.648a97.463 97.463 0 0 0-1.785 33.427c.309 2.578.722 5.124 1.16 7.683-1.843 2.578-3.506 7.129-2.746 15.044l-6.059 28.528-2.52 16.726a14.536 14.536 0 0 0 4.544 12.788c3.867 3.764 8.54 10.126 11.422 14.245a33.808 33.808 0 0 0-1.837 11.338c.064 1.753.161 3.448.284 5.06a44.622 44.622 0 0 0 1.934 10.081c.709 6.871 2.108 15.656 4.847 21.27l1.005 30s-1.515 27.548-4.512 32.956 6.555 51.159 6.555 51.159v6.394l-1.611 4.731-.406-.3c-7.567 9.346 0 12.794 0 12.794l5.356.219a6.027 6.027 0 0 0 3.223 6.665s42.883 1.934 50.456 0 5.55-8.856 1.508-8.379a18.553 18.553 0 0 1-6.04-.793c2.353-2.739.471-6.446-2.533-6.1-4.041.49-13.117-3.081-13.117-3.081l-.045.058a5.9 5.9 0 0 0-.889-.264 103 103 0 0 1-10.016-2.791c-1.934-4.145-6.446-15.283-3.223-23.92 1.457-3.906 1.934-9.1 1.934-14.135a160.5 160.5 0 0 1 6.645-44.907l6.052-20.626s8.573-25.086 9.082-31.977l-.071-10.042c7.09 4.512 12.73 3.165 16.327 1.057a3.867 3.867 0 0 0 .638-6.246zM286.312 418.7c.174-.715.316-1.508.438-2.34 1.186 0 2.378 0 3.564-.039a18.157 18.157 0 0 1 1.792 9.668c-2.707-.844-6.781-2.913-5.769-7.258z" data-name="Path 157" transform="translate(-142.878 -132.51)"/>
        <path id="prefix__Path_158" d="M303.934 792.157l-1.934 5.8 6.31 6.31 20.877 4.854 15.05-1.457-.986-5.311a6.446 6.446 0 0 0-4.783-4.705c-6.188-1.457-17.983-4.77-20.465-9.378z" class="prefix__cls-19" data-name="Path 158" transform="translate(-155.685 -308.187)"/>
        <path id="prefix__Path_159" d="M303.934 792.157l-1.934 5.8 6.31 6.31 20.877 4.854 15.05-1.457-.986-5.311a6.446 6.446 0 0 0-4.783-4.705c-6.188-1.457-17.983-4.77-20.465-9.378z" class="prefix__cls-9" data-name="Path 159" transform="translate(-155.685 -308.187)"/>
        <path id="prefix__Path_160" d="M337.6 810.787l-2.913-3.867 2.913-4.512s8.734 3.526 12.621 3.042 5.8 6.31-1.457 8.25-48.548 0-48.548 0-7.284-3.4 0-12.621l6.31 4.854s10.68 5.8 16.024 4.853z" class="prefix__cls-20" data-name="Path 160" transform="translate(-153.9 -312.74)"/>
        <path id="prefix__Path_161" d="M357.045 818.28l-15.037 1.42-20.877-4.86-6.31-6.31.516-1.541.722-2.166.709-2.121 14.077-3.867a8.7 8.7 0 0 0 2.855 2.865c4.57 3.133 12.788 5.388 17.609 6.517.2.052.406.11.6.18a6.355 6.355 0 0 1 2.456 1.508 6.447 6.447 0 0 1 1.727 3.017z" class="prefix__cls-19" data-name="Path 161" transform="translate(-160.242 -311.944)"/>
        <path id="prefix__Path_162" d="M357.045 822.776l-15.037 1.424-20.877-4.86-6.31-6.31.516-1.541 5.8 4.454s10.687 5.8 16.024 4.854h15.031l-2.913-3.867 2.617-4.041a6.355 6.355 0 0 1 2.456 1.508 6.445 6.445 0 0 1 1.727 3.017z" class="prefix__cls-9" data-name="Path 162" transform="translate(-160.242 -316.44)"/>
        <path id="prefix__Path_163" d="M350.4 821.337l-2.913-3.867 2.913-4.512s8.74 3.532 12.62 3.042 5.8 6.31-1.457 8.257-48.548 0-48.548 0-7.283-3.4 0-12.627l6.31 4.86s10.687 5.8 16.024 4.854z" class="prefix__cls-20" data-name="Path 163" transform="translate(-158.45 -316.49)"/>
        <path id="prefix__Path_164" d="M341.151 375.631s-23.3 2.43-19.9-7.284a17.4 17.4 0 0 0 .715-8.573 23.79 23.79 0 0 0-4.112-9.875l21.844 3.4a27.221 27.221 0 0 0-2.959 7.019c-2.627 10.272 4.412 15.313 4.412 15.313z" class="prefix__cls-19" data-name="Path 164" transform="translate(-161.319 -152.372)"/>
        <path id="prefix__Path_165" d="M292.21 561.55s.483 20.877 5.337 31.074l.973 29.65s-1.457 27.188-4.37 32.524 6.3 50.463 6.3 50.463V713s15.534 5.8 19.9-.973l-4.37-57.772 1.934-80.106z" class="prefix__cls-8" data-name="Path 165" transform="translate(-152.205 -227.601)"/>
        <path id="prefix__Path_166" d="M292.2 561.55s.483 20.877 5.337 31.074l.973 29.65s-1.457 27.188-4.37 32.524 6.31 50.463 6.31 50.463V713s15.534 5.8 19.9-.973l-4.37-57.772 1.934-80.106z" class="prefix__cls-9" data-name="Path 166" transform="translate(-152.202 -227.601)"/>
        <path id="prefix__Path_167" d="M274.116 457.61l-2.913 7.767-2.424 16.507a14.593 14.593 0 0 0 4.37 12.62c5.8 5.8 13.594 17.964 13.594 17.964l9.2-27.671s-9.224-1.457-7.767-7.767.967-17.964.967-17.964z" class="prefix__cls-2" data-name="Path 167" transform="translate(-143.825 -190.657)"/>
        <path id="prefix__Path_168" d="M334.362 801.683c-6.233 9.8-15.921 4.248-17.642 3.146l.709-2.121 14.077-3.867a8.7 8.7 0 0 0 2.856 2.842z" class="prefix__cls-9" data-name="Path 168" transform="translate(-160.917 -311.944)"/>
        <path id="prefix__Path_169" d="M344.3 561.212c-.49 6.794-8.74 31.583-8.74 31.583l-5.8 20.375a162.012 162.012 0 0 0-6.4 44.32c0 4.976-.458 10.1-1.856 13.955-3.867 10.68 3.867 25.247 3.867 25.247-6.794 12.137-18.447 3.867-18.447 3.867v-7.78s-9.23-42.238-6.807-50.488S303.5 611.7 303.5 611.7v-40.291a45.7 45.7 0 0 1-13.327-29.009c-.116-1.592-.213-3.261-.271-5-.393-10.958 7.09-23.791 10.016-28.361.709-1.1 1.147-1.727 1.147-1.727l42.87 17 .1.039v5.331z" class="prefix__cls-8" data-name="Path 169" transform="translate(-151.38 -208.326)"/>
        <path id="prefix__Path_170" d="M339.664 353.3a27.222 27.222 0 0 0-2.959 7.019 19 19 0 0 1-14.773-.541 23.791 23.791 0 0 0-4.112-9.875z" class="prefix__cls-9" data-name="Path 170" transform="translate(-161.308 -152.372)"/>
        <circle id="prefix__Ellipse_51" cx="18.937" cy="18.937" r="18.937" class="prefix__cls-19" data-name="Ellipse 51" transform="translate(149.712 170.34)"/>
        <path id="prefix__Path_171" d="M348.882 529.663h-.2c-20.355 4.183-45.912-17.029-45.912-17.029a24.492 24.492 0 0 0 1.766-3.616c.709-1.1 1.147-1.727 1.147-1.727l42.87 17 .11 1.7z" class="prefix__cls-9" data-name="Path 171" transform="translate(-155.959 -208.315)"/>
        <path id="prefix__Path_172" d="M332.823 382.809s-27.174-16.509-35.915-9.709l-12.137 15.54s-7.767 2.424-6.31 17.957l-5.8 28.161 17.48 4.37s10.2 9.707 1.934 23.791c0 0 25.731 21.361 46.125 16.991l-1.457-22.817s-4.37-12.62 3.4-24.274.483-22.817-6.794-27.188c-.023-.005-3.426-18.452-.526-22.822z" class="prefix__cls-2" data-name="Path 172" transform="translate(-145.256 -160.034)"/>
        <path id="prefix__Path_173" d="M365.534 542.72s10.2 1.934 15.05 9.714a30.205 30.205 0 0 0 5.086 6.349 3.867 3.867 0 0 1-.606 6.143c-3.867 2.314-10.133 3.738-18.048-2.784-13.616-11.165-1.482-19.422-1.482-19.422z" class="prefix__cls-19" data-name="Path 173" transform="translate(-176.497 -220.908)"/>
        <path id="prefix__Path_174" d="M334.48 403.179s-9.707-.973-12.137 24.248-6.31 31.074-6.31 31.074-2.43 13.1 3.4 20.871 16.991 24.274 16.991 24.274 12.143 3.4 14.567-8.734l-15.05-28.161s-2.424-9.707 3.4-16.507 10.19-51.918-4.861-47.065z" class="prefix__cls-9" data-name="Path 174" transform="translate(-160.494 -171.18)"/>
        <path id="prefix__Path_175" d="M335.99 400.919s-9.714-.973-12.137 24.274-6.31 31.081-6.31 31.081-2.43 13.1 3.4 20.871 16.991 24.248 16.991 24.248 12.137 3.4 14.567-8.734l-15.05-28.141s-2.43-9.707 3.4-16.507 10.19-51.945-4.861-47.092z" class="prefix__cls-2" data-name="Path 175" transform="translate(-161.031 -170.377)"/>
        <path id="prefix__Path_176" d="M355.186 429.36s.967 15.051-3.4 23.307-4.37 18.931 0 24.758" class="prefix__cls-9" data-name="Path 176" transform="translate(-172.215 -180.616)"/>
        <path id="prefix__Path_177" d="M345.5 396.2s-3.867-3.867-15.05-4.37-16.017-3.867-16.017-3.867" class="prefix__cls-9" data-name="Path 177" transform="translate(-160.103 -165.901)"/>
        <path id="prefix__Path_178" d="M304.006 298.824c-2.952.367-6.323 1.373-7.387 4.151a22.814 22.814 0 0 0-.645 3.223c-1.1 4.241-5.872 6.214-8.818 9.456-2.578 2.862-3.745 6.736-4.589 10.506a98.7 98.7 0 0 0-1.708 32.989c.947 8.051 2.881 15.979 3.423 24.061s-.445 16.6-4.866 23.391c-1.934 2.926-4.409 5.492-5.756 8.708 2.784 2.256 6.626 2.578 10.21 2.7q6.265.213 12.53 0c2.191-.077 4.48-.219 6.368-1.328a9.868 9.868 0 0 0 3.345-3.584c2.385-4.054 2.991-8.927 2.888-13.632s-.844-9.378-.935-14.084c-.045-2.578.155-5.285 1.631-7.38 1.064-1.521 2.681-2.54 4.067-3.764 5.2-4.609 6.981-12 7.155-18.937s-.967-13.9-.38-20.813c.226-2.707 1.238-5.962 3.906-6.491a13.223 13.223 0 0 0 2.533-.322c2.14-.819 1.934-3.867 2.54-6.04.69-2.482 2.8-4.389 3.4-6.9 1.4-5.872-6.078-12.891-10.958-14.928-5.102-2.123-12.701-1.626-17.954-.982z" class="prefix__cls-9" data-name="Path 178" transform="translate(-145.612 -134.021)"/>
        <path id="prefix__Path_179" d="M303.234 297.32c-2.952.361-6.323 1.373-7.387 4.151a29.3 29.3 0 0 0-.645 3.223c-1.1 4.235-5.878 6.214-8.824 9.456-2.578 2.862-3.745 6.729-4.589 10.506a98.836 98.836 0 0 0-1.76 32.956c.948 8.051 2.881 15.979 3.423 24.068s-.445 16.6-4.866 23.391c-1.934 2.92-4.409 5.485-5.756 8.7 2.784 2.262 6.626 2.578 10.21 2.707q6.265.2 12.53 0c2.191-.071 4.48-.213 6.368-1.328a9.752 9.752 0 0 0 3.339-3.584c2.391-4.054 2.991-8.927 2.894-13.632s-.851-9.378-.935-14.084c-.045-2.578.155-5.285 1.624-7.38 1.07-1.515 2.688-2.533 4.074-3.764 5.2-4.6 6.981-12 7.155-18.937s-.973-13.89-.387-20.813c.232-2.707 1.244-5.962 3.906-6.484a13.756 13.756 0 0 0 2.54-.322c2.14-.825 1.934-3.867 2.54-6.046.683-2.475 2.8-4.389 3.4-6.89 1.4-5.872-6.078-12.891-10.958-14.934-5.056-2.107-12.649-1.611-17.896-.96z" class="prefix__cls-8" data-name="Path 179" transform="translate(-145.317 -133.484)"/>
    </g>
</svg>
